<?xml version="1.0" encoding="utf-8"?>
<!-- Generator: Adobe Illustrator 21.0.0, SVG Export Plug-In . SVG Version: 6.00 Build 0)  -->
<svg version="1.1" id="图层_1" xmlns="http://www.w3.org/2000/svg" xmlns:xlink="http://www.w3.org/1999/xlink" x="0px" y="0px"
	 width="484.6px" height="766.3px" viewBox="0 0 484.6 766.3" style="enable-background:new 0 0 484.6 766.3;" xml:space="preserve"
	>
<g>
	<path d="M484.6,223.1c-2.4,16-3.4,32.4-7.5,48c-13.1,50.8-46.7,86.2-89.3,114.3c-16.2,10.7-32.7,20.9-47.7,33.1
		c-19.6,15.8-29.3,37-29,62.8c0.5,31.6,0.1,63.1,0.1,95.6c-42.3,0-84,0-126.4,0c-0.2-2.7-0.5-5.3-0.5-8c0-47.2,0.2-94.5,0-141.7
		c-0.1-38.7,16-68.8,47.6-90.8c28.2-19.6,56.9-38.4,84.6-58.5c40.5-29.4,47.1-101.4-5.9-132.8c-45.3-26.8-108.9-24-149.1,9.5
		c-22.8,19-30.8,45.4-33.3,73.7c-1.8,20-2,40.1-3,61c-41.5,0-83.2,0-125.3,0c0.6-48.5-1-97.3,18.8-142.4
		C53.7,67.3,112.2,14.6,200.4,2.9C284.5-8.2,360.3,12,421.3,74c36.9,37.6,58.9,82.5,61.6,135.9c0.2,3.7,1.1,7.4,1.7,11.1
		C484.6,221.7,484.6,222.4,484.6,223.1z"/>
	<path d="M183.5,766.3c0-43.5,0-86.3,0-129.8c42.7,0,84.8,0,127.5,0c0,43.2,0,86.1,0,129.8C268.8,766.3,226.7,766.3,183.5,766.3z"/>
</g>
</svg>
