<?xml version="1.0" encoding="utf-8"?>
<!-- Generator: Adobe Illustrator 21.0.0, SVG Export Plug-In . SVG Version: 6.00 Build 0)  -->
<svg version="1.1" id="图层_1" xmlns="http://www.w3.org/2000/svg" xmlns:xlink="http://www.w3.org/1999/xlink" x="0px" y="0px"
	 width="31px" height="31px" viewBox="0 0 31 31" style="enable-background:new 0 0 31 31;" xml:space="preserve">
<style type="text/css">
	.st0{display:none;}
	.st1{display:inline;}
	.st2{fill-rule:evenodd;clip-rule:evenodd;fill:#91815F;}
	.st3{fill-rule:evenodd;clip-rule:evenodd;fill:#DB6832;}
	.st4{display:none;fill-rule:evenodd;clip-rule:evenodd;fill:#DB6832;}
</style>
<g id="Featured_1_" class="st0">
	<g class="st1">
		<path class="st2" d="M21,9.3L21,9.3l-3.7,0l-1.1-3.5c-0.1-0.3-0.4-0.5-0.7-0.5c-0.3,0-0.6,0.2-0.7,0.5l-1.1,3.5l-3.7,0h0
			c-0.3,0-0.6,0.2-0.7,0.5c-0.1,0.3,0,0.7,0.3,0.9l3,2.1l-1.1,3.5c-0.1,0.3,0,0.7,0.3,0.9c0.1,0.1,0.3,0.1,0.5,0.1
			c0.2,0,0.3,0,0.5-0.1l3-2.1l3,2.1c0.1,0.1,0.3,0.1,0.5,0.1c0.2,0,0.3,0,0.5-0.1c0.3-0.2,0.4-0.5,0.3-0.9l-1.2-3.5l3-2.1
			c0.3-0.2,0.4-0.5,0.3-0.9C21.7,9.5,21.4,9.3,21,9.3z M15.5,0C8.8,0,3.3,5.4,3.3,12c0,4.3,2.3,8.2,6.1,10.4v7.5
			c0,0.4,0.2,0.8,0.6,0.9c0.4,0.2,0.8,0.1,1.1-0.1l4.5-3.4l4.5,3.4c0.2,0.1,0.4,0.2,0.7,0.2c0.2,0,0.3,0,0.5-0.1
			c0.4-0.2,0.6-0.5,0.6-0.9v-7.6c3.7-2.2,6-6.1,6-10.3C27.7,5.4,22.2,0,15.5,0z M20.2,20.8c-0.3,0.1-0.5,0.4-0.5,0.7
			c0,0.1,0,0.2,0,0.3v6l-3.4-2.6C16,25.1,15.8,25,15.5,25c-0.2,0-0.5,0.1-0.7,0.2l-3.4,2.6v-6c0-0.4-0.2-0.8-0.6-0.9
			c-3.4-1.7-5.5-5.1-5.5-8.8c0-5.5,4.5-9.9,10.1-9.9c5.5,0,10.1,4.4,10.1,9.9C25.6,15.7,23.5,19.1,20.2,20.8z"/>
	</g>
</g>
<g id="Mark_1_" class="st0">
	<g class="st1">
		<path class="st3" d="M29.5,10.4h-3.1V1.5c0-0.6-0.4-1-1-1H5.6c-0.6,0-1,0.4-1,1v8.9H1.5c-0.6,0-1,0.4-1,1v6c0,0.4,0.3,0.8,0.7,0.9
			L4.6,21c0.1,1.4,0.8,2.7,2,3.5l8.3,5.8c0.2,0.1,0.4,0.2,0.6,0.2s0.4-0.1,0.6-0.2l8.3-5.8c1.2-0.8,1.9-2.1,2-3.5l3.4-2.6
			c0.4-0.1,0.7-0.5,0.7-0.9v-6C30.5,10.8,30.1,10.4,29.5,10.4z M6.6,2.5h17.8v7.9H6.6V2.5z M24.4,20.6c0,0.9-0.4,1.7-1.2,2.3
			l-7.7,5.4l-7.7-5.4c-0.7-0.5-1.2-1.4-1.2-2.3v-2.2h17.8V20.6z M28.5,16.4H2.5v-4h26.1V16.4z"/>
	</g>
</g>
<rect x="1.7" y="11.5" class="st4" width="27.8" height="5.8"/>
<g id="Profile_x5F_4_1_">
	<g>
		<path class="st3" d="M15.5,0.6c-8.3,0-15,6.7-15,14.9c0,4.2,1.8,8,4.6,10.8c0,0,0,0,0,0c0,0,0.1,0,0.1,0.1
			c2.7,2.5,6.3,4.1,10.3,4.1c4.1,0,7.8-1.6,10.5-4.3c0,0,0,0,0,0c0,0,0,0,0,0c2.7-2.7,4.4-6.5,4.4-10.6C30.5,7.3,23.8,0.6,15.5,0.6z
			 M15.5,28.4c-3,0-5.8-1-8-2.8c0.4-0.2,0.9-0.4,1.3-0.4c0.5,0,1.2-0.2,1.9-0.4c0.3-0.1,0.5-0.1,0.8-0.2c1.5-0.3,2-0.7,2.2-0.9
			c0.2-0.2,0.4-0.5,0.4-0.8c0-0.7-0.2-1.3-0.6-1.8c-0.1-0.1-0.2-0.2-0.3-0.3c-1.4-1-2.2-2.8-2.2-4.8c0-3.1,2.1-5.6,4.6-5.6
			c2.5,0,4.6,2.5,4.6,5.6c0,2-0.8,3.7-2.2,4.8c-0.1,0-0.1,0.1-0.2,0.2C17.3,21.6,17,22.3,17,23c0,0.3,0.1,0.6,0.3,0.8
			c0.2,0.2,0.7,0.5,2.2,0.8c0.9,0.2,2,0.4,2.6,0.5c0.4,0,1,0.2,1.5,0.5C21.5,27.3,18.6,28.4,15.5,28.4z M25.2,24.1
			c-0.9-0.6-1.9-0.9-2.9-1c-0.5,0-1.5-0.2-2.3-0.4c-0.3-0.1-0.6-0.2-0.8-0.2c0,0,0,0,0-0.1c1.8-1.4,2.8-3.8,2.8-6.3
			c0-4.2-2.9-7.6-6.6-7.6c-3.6,0-6.6,3.4-6.6,7.6c0,2.5,1.1,4.8,2.8,6.3c0,0,0.1,0.1,0.1,0.1c-0.2,0.1-0.5,0.1-0.9,0.2
			c-0.3,0.1-0.5,0.1-0.8,0.2c-0.6,0.1-1.2,0.3-1.5,0.3c-0.8,0.1-1.8,0.4-2.7,1c-2.2-2.3-3.5-5.4-3.5-8.8c0-7.1,5.8-12.9,13-12.9
			c7.2,0,13,5.8,13,12.9C28.5,18.8,27.3,21.8,25.2,24.1z"/>
	</g>
</g>
<polygon class="st3" points="13.1,10.2 10.6,13.6 10.6,18.8 12.4,22.2 12.6,23.1 6,25.4 8.6,28 15.8,29.3 21.8,28.1 24.8,25.7 
	24.1,24.8 19.2,23.6 17.8,22.4 19.7,20.6 21.1,15.8 19.9,12.1 16.7,9.5 "/>
</svg>
