<?xml version="1.0" encoding="utf-8"?>
<!-- Generator: Adobe Illustrator 21.0.0, SVG Export Plug-In . SVG Version: 6.00 Build 0)  -->
<svg version="1.1" xmlns="http://www.w3.org/2000/svg" xmlns:xlink="http://www.w3.org/1999/xlink" x="0px" y="0px" width="66px"
	 height="66px" viewBox="0 0 66 66" style="enable-background:new 0 0 66 66;" xml:space="preserve">
<style type="text/css">
	.st0{fill:#C54442;}
</style>
<g id="图层_1">
	<path class="st0" d="M33,0C14.8,0,0,14.8,0,33s14.8,33,33,33s33-14.8,33-33S51.2,0,33,0z M33,61.6C17.2,61.6,4.4,48.8,4.4,33
		S17.2,4.4,33,4.4S61.6,17.2,61.6,33S48.8,61.6,33,61.6z"/>
</g>
<g id="图层_2">
	<path class="st0" d="M33.1,41.1L33.1,41.1c-1,0-1.9-0.8-1.9-1.9V17c0-1,0.8-1.9,1.9-1.9h0c1,0,1.9,0.8,1.9,1.9v22.2
		C34.9,40.2,34.1,41.1,33.1,41.1z"/>
	<circle class="st0" cx="33.2" cy="47.4" r="2.7"/>
</g>
</svg>
