<?xml version="1.0" encoding="utf-8"?>
<!-- Generator: Adobe Illustrator 21.0.0, SVG Export Plug-In . SVG Version: 6.00 Build 0)  -->
<svg version="1.1" xmlns="http://www.w3.org/2000/svg" xmlns:xlink="http://www.w3.org/1999/xlink" x="0px" y="0px" width="20px"
	 height="20px" viewBox="0 0 20 20" style="enable-background:new 0 0 20 20;" xml:space="preserve">
<style type="text/css">
	.st0{display:none;}
	.st1{fill:#FFFFFF;}
</style>
<g id="图层_2">
</g>
<g id="图层_1">
	<path class="st0" d="M4.1,12.3c-0.4,0-0.7-0.3-0.7-0.7c0-3.7,3-6.7,6.6-6.7c3.6,0,6.6,3,6.6,6.7c0,0.4-0.3,0.7-0.7,0.7
		s-0.7-0.3-0.7-0.7c0-2.9-2.3-5.2-5.1-5.2c-2.8,0-5.1,2.3-5.1,5.2C4.9,11.9,4.5,12.3,4.1,12.3z"/>
	<path class="st1" d="M10,2C4.5,2,0,6.5,0,12.1c0,2.2,0.7,4.4,2,6.1c0.1,0.2,0.4,0.3,0.6,0.3h14.9c0.2,0,0.4-0.1,0.6-0.3
		c1.3-1.6,2-3.9,2-6.1C20,6.5,15.5,2,10,2z M11.3,14.3c-0.8,0.9-2.1,1-3,0.2c-0.9-0.8-1-2.2-0.2-3.1c0.8-0.9,4.8-2.3,4.8-2.3
		S12.1,13.4,11.3,14.3z M15.9,12.3c-0.4,0-0.7-0.3-0.7-0.7c0-2.9-2.3-5.2-5.1-5.2c-2.8,0-5.1,2.3-5.1,5.2c0,0.4-0.3,0.7-0.7,0.7
		c-0.4,0-0.7-0.3-0.7-0.7c0-3.7,3-6.7,6.6-6.7c3.6,0,6.6,3,6.6,6.7C16.6,11.9,16.3,12.3,15.9,12.3z"/>
</g>
</svg>
