<?xml version="1.0" encoding="utf-8"?>
<!-- Generator: Adobe Illustrator 21.0.0, SVG Export Plug-In . SVG Version: 6.00 Build 0)  -->
<svg version="1.1" id="图层_1" xmlns="http://www.w3.org/2000/svg" xmlns:xlink="http://www.w3.org/1999/xlink" x="0px" y="0px"
	 width="20px" height="20px" viewBox="0 0 20 20" style="enable-background:new 0 0 20 20;" xml:space="preserve">
<style type="text/css">
	.st0{fill-rule:evenodd;clip-rule:evenodd;fill:#FFFFFF;}
</style>
<g id="Dashboard_1_">
	<g>
		<path class="st0" d="M8.3,14.6c0.9,0.8,2.3,0.7,3-0.2c0.8-0.9,1.5-5.1,1.5-5.1s-4,1.4-4.8,2.3C7.3,12.4,7.4,13.8,8.3,14.6z M10,2
			C4.5,2,0,6.5,0,12.1c0,2.2,0.7,4.4,2,6.1c0.1,0.2,0.4,0.3,0.6,0.3h14.9c0.2,0,0.4-0.1,0.6-0.3c1.3-1.6,2-3.9,2-6.1
			C20,6.5,15.5,2,10,2z M17.1,17H2.9c-0.9-1.4-1.5-3.1-1.5-4.9c0-4.8,3.8-8.6,8.5-8.6c4.7,0,8.5,3.9,8.5,8.6
			C18.5,13.9,18,15.6,17.1,17z M10,4.8c-3.6,0-6.6,3-6.6,6.7c0,0.4,0.3,0.7,0.7,0.7c0.4,0,0.7-0.3,0.7-0.7c0-2.9,2.3-5.2,5.1-5.2
			c2.8,0,5.1,2.3,5.1,5.2c0,0.4,0.3,0.7,0.7,0.7s0.7-0.3,0.7-0.7C16.6,7.8,13.6,4.8,10,4.8z"/>
	</g>
</g>
</svg>
