<?xml version="1.0" encoding="utf-8"?>
<!-- Generator: Adobe Illustrator 21.0.0, SVG Export Plug-In . SVG Version: 6.00 Build 0)  -->
<svg version="1.1" id="图层_1" xmlns="http://www.w3.org/2000/svg" xmlns:xlink="http://www.w3.org/1999/xlink" x="0px" y="0px"
	 width="141.9px" height="32.7px" viewBox="0 0 141.9 32.7" style="enable-background:new 0 0 141.9 32.7;" xml:space="preserve">
<style type="text/css">
	.st0{display:none;fill:#D06633;enable-background:new    ;}
	.st1{font-family:'MicrosoftYaHei';}
	.st2{font-size:31.6894px;}
	.st3{fill:#938361;}
</style>
<text transform="matrix(1 0 0 1 45.166 27.3542)" class="st0 st1 st2">好快通宝</text>
<text transform="matrix(1 0 0 1 46.2051 47.0087)" style="display:none;fill:#A5A5A5;enable-background:new    ; font-family:'ArialMT'; font-size:14.9169px;">Epuchain</text>
<g>
	<path class="st3" d="M107.2,6.2c2.3,0,4.5,0,6.8,0c0.1,0,0.2,0,0.3,0c0.2,0,0.2,0.1,0.2,0.3c0,0.3,0,0.6,0,0.9c0,0.1,0,0.2-0.1,0.3
		c-0.8,1.2-1.5,2.3-2.3,3.5c0,0.1-0.1,0.2-0.1,0.2s0.1,0.1,0.2,0.1c0.8,0,1.5,0,2.3-0.1c0.3,0,0.4,0.1,0.4,0.4c0,1.7,0,3.4,0,5.1
		c0,1.4,0,2.9,0,4.3c0,0.9-0.2,1.7-0.7,2.4c-0.3,0.5-0.8,0.8-1.3,1.1c-0.4,0.2-0.7,0.3-1.1,0.5c-0.3,0.1-0.6,0.1-1,0.2
		c-0.1,0-0.2-0.1-0.3-0.1c-0.1-0.2-0.2-0.4-0.3-0.6c-0.1-0.1,0-0.2,0.1-0.2c0.7-0.5,1-1.2,1.1-2c0.1-0.5,0.1-1,0.1-1.5
		c0-0.3-0.1-0.3-0.3-0.3c-0.7,0-1.4,0-2,0c-0.3,0-0.3,0-0.3,0.3c0,1.4,0,2.8,0,4.2c0,0.1,0,0.1,0,0.2c0,0.2-0.1,0.2-0.3,0.2
		c-0.8,0-1.6,0-2.4,0c-0.2,0-0.3,0-0.5,0s-0.3,0-0.3-0.3c0-1.4,0-2.7,0-4.1c0-0.5,0-0.5-0.5-0.5c-0.6,0-1.3,0-1.9,0
		c-0.3,0-0.4,0-0.4,0.4c0,1.4,0,2.8,0,4.2c0,0.3,0,0.4-0.4,0.3c-0.9,0-1.8,0-2.7,0c-0.3,0-0.3,0-0.3-0.3c0-4.2,0-8.5,0-12.7
		c0-0.2,0-0.4,0-0.6c0-0.2,0.1-0.3,0.3-0.3c0.8,0,1.5,0,2.3,0.1c0.1,0,0.1,0,0.2,0c0.2,0,0.2-0.1,0.1-0.2c-0.1-0.1-0.2-0.3-0.3-0.4
		c-0.4-0.6-0.9-1.3-1.3-1.9c-0.1-0.1-0.1-0.1-0.2-0.2c-0.1-0.1-0.1-0.2,0.1-0.3c0,0,0.1,0,0.2,0c1.1,0,2.1,0,3.2,0
		c0.2,0,0.3,0.1,0.4,0.2c0.5,0.9,1.1,1.7,1.7,2.6c0.1,0.1,0.2,0.2,0.4,0.2c0.5,0,1,0,1.5,0c0.2,0,0.3-0.1,0.4-0.2
		c0.5-0.8,1.1-1.7,1.6-2.5c0.2-0.3,0.4-0.7,0.7-1c0-0.1,0.1-0.2,0-0.2c0,0-0.1-0.1-0.2-0.1c-2.1,0-4.2,0-6.3,0c-1.3,0-2.6,0-4,0
		c-0.3,0-0.4-0.1-0.4-0.4c0-0.2,0-0.4,0-0.6c0-0.3,0.1-0.3,0.3-0.3c1.4,0,2.8,0,4.2,0C105.3,6.3,106.2,6.3,107.2,6.2L107.2,6.2z
		 M104.1,15.4L104.1,15.4c0.4,0,0.7,0,1.1,0c0.2,0,0.3-0.1,0.3-0.3c0-0.7,0-1.4,0-2.1c0-0.2-0.1-0.3-0.3-0.3c-0.7,0-1.5,0-2.2,0
		c-0.2,0-0.3,0.1-0.3,0.3c0,0.7,0,1.4,0,2.1c0,0.2,0.1,0.3,0.3,0.3C103.4,15.4,103.8,15.4,104.1,15.4z M104.1,19.3L104.1,19.3
		c0.4,0,0.7,0,1.1,0c0.2,0,0.3-0.1,0.3-0.3c0-0.7,0-1.4,0-2.1c0-0.3-0.1-0.3-0.3-0.3c-0.7,0-1.4,0-2.1,0c-0.3,0-0.3,0-0.3,0.3
		c0,0.7,0,1.4,0,2.1c0,0.2,0.1,0.3,0.3,0.3C103.4,19.3,103.8,19.3,104.1,19.3z M110.2,15.4c0.4,0,0.7,0,1.1,0c0.2,0,0.3-0.1,0.3-0.3
		c0-0.7,0-1.4,0-2.1c0-0.2-0.1-0.3-0.3-0.3c-0.7,0-1.4,0-2.1,0c-0.2,0-0.3,0.1-0.3,0.3c0,0.7,0,1.5,0,2.2c0,0.2,0.1,0.3,0.3,0.3
		C109.5,15.4,109.8,15.4,110.2,15.4z M110.2,19.3L110.2,19.3c0.4,0,0.7,0,1.1,0c0.2,0,0.2-0.1,0.2-0.2c0-0.7,0-1.4,0-2.2
		c0-0.2-0.1-0.3-0.3-0.3c-0.7,0-1.4,0-2.1,0c-0.2,0-0.3,0.1-0.3,0.3c0,0.7,0,1.4,0,2.2c0,0.2,0.1,0.3,0.3,0.3
		C109.5,19.3,109.9,19.3,110.2,19.3z"/>
	<path class="st3" d="M89.1,12.7c0,1.5,0,3,0,4.5c0,0.3,0.1,0.3,0.3,0.3c0.1,0,0.2,0,0.4,0c0.1,0,0.2,0.1,0.2,0.2c0,0.3,0,0.6,0,0.9
		c0,0.1-0.1,0.2-0.2,0.2s-0.2,0-0.3,0c-1.2,0-2.3,0-3.5-0.1c-0.3,0-0.3,0.1-0.3,0.3c0.2,0.7,0.4,1.4,0.7,2.1
		c0.7,1.8,1.6,3.4,2.8,4.9c0.2,0.3,0.4,0.5,0.6,0.7s0.2,0.3,0.1,0.5c-0.1,0.1-0.1,0.3-0.2,0.4c-0.1,0.2-0.2,0.2-0.3,0.1
		c-1.1-0.5-2.1-1.1-2.9-1.8c-1-0.8-1.8-1.7-2.4-2.8c-0.4-0.7-0.7-1.4-1-2.1c0-0.1-0.1-0.3-0.2-0.2c-0.1,0-0.2,0.2-0.2,0.3
		c-0.4,1-0.9,2-1.5,2.9c-0.8,1.1-1.8,2-2.9,2.7c-0.6,0.4-1.2,0.7-1.8,1c-0.2,0.1-0.3,0.1-0.4-0.1c-0.1-0.1-0.1-0.3-0.2-0.4
		c-0.1-0.2-0.1-0.3,0.1-0.5c0.3-0.4,0.7-0.8,1-1.2c0.8-1.1,1.5-2.3,2-3.5c0.4-1,0.8-2.1,1.1-3.1c0.1-0.2,0-0.3-0.3-0.3
		c-0.9,0-1.8,0-2.7,0c-0.2,0-0.4,0-0.6,0s-0.3-0.1-0.3-0.3c0-0.2,0-0.5,0-0.7s0.1-0.3,0.3-0.3c1.2,0,2.3,0,3.5,0
		c0.3,0,0.4-0.1,0.4-0.3c0.1-0.8,0.1-1.6,0.2-2.3c0-1.7,0-3.4,0.1-5c0-0.1,0-0.2,0-0.3c0-0.2-0.1-0.3-0.3-0.3c-0.3,0-0.5,0-0.8,0
		c-0.9,0-1.8,0-2.7,0c-0.3,0-0.3,0-0.3-0.3s0-0.5,0-0.8c0-0.2,0-0.3,0.2-0.3c0.1,0,0.2,0,0.3,0c1.1,0,2.1,0,3.2,0
		c0.3,0,0.3,0,0.3-0.3c0-0.7,0-1.4-0.1-2c0-0.2,0.1-0.3,0.3-0.3c0.5,0,1,0,1.4,0s0.9,0,1.3,0c0.3,0,0.4,0.1,0.4,0.4
		c0,0.7,0,1.3-0.1,2c0,0.2,0,0.3,0.2,0.3c1.5,0,3.1,0,4.6,0c0.1,0,0.1,0,0.2,0c0.2,0,0.3,0.1,0.3,0.3c0,1.1,0,2.2,0,3.3
		C89.1,11.9,89.1,12.3,89.1,12.7L89.1,12.7z M85.7,13.4L85.7,13.4c0-0.3,0-0.7,0-1c0-0.9,0-1.9,0-2.8c0-0.2-0.1-0.3-0.2-0.3
		c-0.5,0-0.9,0-1.4,0c-0.2,0-0.2,0.1-0.2,0.3c0,0.1,0,0.2,0,0.3c0,1.8,0,3.6,0,5.3c0,0.7-0.1,1.4-0.2,2.1c0,0.3,0,0.4,0.3,0.4
		c0.5,0,0.9,0,1.4,0c0.3,0,0.4-0.1,0.4-0.4C85.7,16,85.7,14.7,85.7,13.4z"/>
	<path class="st3" d="M51,13.1c0,1.3,0,2.6,0,4c0,1.6-0.3,3.1-0.9,4.6c-0.3,0.7-0.6,1.3-1.1,1.9c-0.1,0.1-0.1,0.2,0,0.4
		c0.6,1.1,1.3,2.2,1.9,3.3c0,0.1,0.1,0.2,0,0.2c0,0.1-0.2,0.1-0.2,0.1c-1,0-2.1,0-3.1,0c-0.2,0-0.3-0.1-0.3-0.2
		c-0.2-0.3-0.3-0.6-0.5-0.8c-0.1-0.2-0.2-0.3-0.5-0.1c-0.6,0.5-1.3,0.9-2,1.1c-0.4,0.2-0.9,0.3-1.3,0.4c-0.2,0.1-0.3,0-0.4-0.2
		c-0.1-0.1-0.1-0.3-0.2-0.4c-0.1-0.2-0.1-0.3,0.1-0.5c0.3-0.3,0.6-0.5,0.8-0.8c0.6-0.6,1.1-1.3,1.7-1.9c0.1-0.1,0.1-0.3,0-0.4
		c-0.7-1.1-1.4-2.3-2.1-3.4c-0.1-0.2-0.2-0.4-0.2-0.7c0-3.3,0-6.5,0-9.8c0-0.1,0-0.3,0-0.4c0-0.2-0.1-0.3-0.3-0.3
		c-0.1,0-0.3,0-0.4,0c-0.2,0-0.2-0.1-0.2-0.2c0-0.3,0-0.6,0-0.9C41.9,8,42,8,42.1,8s0.3,0,0.4,0c0.2,0,0.2-0.1,0.2-0.2
		c0-0.7,0-1.4-0.1-2c0-0.3,0.1-0.3,0.3-0.3c1,0,1.9,0,2.9,0c0.3,0,0.3,0.1,0.3,0.3c0,0.7,0,1.4-0.1,2C46,8,46.1,8,46.3,8
		c0.7,0,1.4,0,2.2,0c0.7,0,1.4,0,2,0C51,8,51,8,51,8.4c0,1.5,0,3.1,0,4.6V13.1L51,13.1z M46.2,14.2L46.2,14.2c0,1.5,0,3.1,0,4.6
		c0,0.1,0.1,0.3,0.1,0.4c0.2,0.3,0.3,0.6,0.5,0.9c0,0.1,0.2,0.1,0.2,0.2c0.1-0.1,0.2-0.1,0.2-0.2c0.1-0.6,0.3-1.2,0.3-1.8
		c0.1-0.7,0.1-1.4,0.1-2.1c0-2.2,0-4.4,0-6.5c0-0.2-0.1-0.3-0.3-0.3c-0.3,0-0.6,0-0.9,0c-0.2,0-0.3,0.1-0.3,0.3
		C46.2,11.1,46.2,12.6,46.2,14.2z"/>
	<path class="st3" d="M129.6,27.5c-3.5,0-6.9,0-10.4,0c-0.2,0-0.4,0-0.7,0c-0.2,0-0.3-0.1-0.3-0.3c0-0.3,0-0.5,0-0.8
		c0-0.2,0.1-0.2,0.2-0.3h0.1c2.8,0,5.5,0,8.3,0c0.3,0,0.5,0,0.8,0c0.2,0,0.3,0,0.3-0.3c0-1.8,0-3.5,0-5.3c0-0.1,0-0.1,0-0.2
		c0-0.3,0-0.4-0.4-0.4c-2,0-4,0-6,0c-0.7,0-1.4,0-2.1,0c-0.3,0-0.4,0-0.4-0.4c0-0.3,0-0.5,0-0.8c0-0.2,0.1-0.3,0.3-0.3
		c0.1,0,0.3,0,0.4,0c2.5,0,5,0,7.5,0c0.2,0,0.4,0,0.5,0c0.2,0,0.3-0.1,0.3-0.3c0-1.4,0-2.8,0-4.2c0-0.3,0-0.3-0.3-0.3
		c-1.3,0-2.6,0-3.9,0c-1.6,0-3.2,0-4.7,0c-0.2,0-0.3-0.1-0.3-0.3c0-0.3,0-0.6,0-0.8s0.1-0.3,0.3-0.3c2.8,0,5.5,0,8.3,0
		c4.2,0,8.4,0,12.5,0c0.2,0,0.3,0,0.5,0s0.2,0.1,0.3,0.2c0,0.3,0,0.6,0,0.9c0,0.2-0.1,0.3-0.3,0.3s-0.3,0-0.5,0c-2.6,0-5.2,0-7.8,0
		c-0.1,0-0.3,0-0.4,0c-0.2,0-0.2,0.1-0.2,0.2c0,1.3,0,2.6,0,3.8c0,0.1,0,0.3,0,0.4c0,0.2,0,0.3,0.3,0.2c0.2,0,0.4,0,0.6,0
		c2.4,0,4.8,0,7.2,0c0.1,0,0.2,0,0.4,0s0.3,0.1,0.3,0.3c0,0.3,0,0.5,0,0.8s-0.1,0.3-0.3,0.3c-0.5,0-1,0-1.5,0c-2,0-3.9,0-5.9,0
		c-0.3,0-0.5,0-0.8,0c-0.2,0-0.3,0.1-0.3,0.3c0,1.9,0,3.7,0,5.6c0,0.2,0,0.3,0.3,0.3c3,0,6,0,9-0.1c0.3,0,0.4,0.1,0.4,0.4
		c0,0.2,0,0.4,0,0.6s-0.1,0.3-0.3,0.3s-0.4,0-0.5,0C136.6,27.5,133.1,27.5,129.6,27.5z"/>
	<path class="st3" d="M57.8,6.2c1.8,0,3.5,0,5.3,0c0.1,0,0.2,0,0.4,0c0.1,0,0.2,0.1,0.2,0.2c0,0.3,0,0.7,0,1c0,0.1,0,0.2-0.1,0.3
		c-0.8,1.7-1.6,3.5-2.4,5.2c-0.2,0.3-0.3,0.7-0.5,1c0,0.1-0.1,0.2-0.1,0.4s0,0.5,0,0.7c0,0.3,0.1,0.3,0.3,0.3c1.1,0,2.2,0,3.3-0.1
		c0.1,0,0.1,0,0.2,0c0.2,0,0.2,0.1,0.2,0.3c0,0.3,0,0.5,0,0.8c0,0.2-0.1,0.3-0.3,0.3c-0.5,0-1,0-1.5,0c-0.6,0-1.2,0-1.9,0
		c-0.3,0-0.3,0.1-0.3,0.3c0,2.3,0,4.7,0,7c0,1.2-0.4,2.3-1.4,3.1c-0.6,0.4-1.2,0.7-1.9,0.8c-0.2,0-0.4,0.1-0.6,0.1
		c-0.2,0-0.3,0-0.4-0.2c-0.1-0.1-0.2-0.3-0.2-0.4C56,27.2,56,27,56.2,26.9c0.7-0.6,1-1.4,1.1-2.2c0.1-0.7,0.1-1.4,0.1-2
		c0-1.9,0-3.8,0-5.8c0-0.3-0.1-0.3-0.3-0.3c-1.7,0-3.4,0-5,0c-0.2,0-0.3-0.1-0.3-0.3c0-0.2,0-0.5,0-0.7s0.1-0.2,0.2-0.3
		c0.2,0,0.4,0,0.6,0c1.5,0,3,0,4.5,0c0.3,0,0.4,0,0.3-0.3c0-0.5,0-1,0-1.6c0-0.1,0-0.3,0.1-0.4c0.5-1,0.9-2,1.4-3.1
		c0.3-0.7,0.7-1.4,1-2.1c0.2-0.4,0.1-0.5-0.3-0.4c-1.8,0-3.7,0-5.5,0.1c-0.5,0-1.1,0-1.6,0c-0.3,0-0.3-0.1-0.4-0.4
		c0-0.2,0-0.5,0-0.7s0.1-0.3,0.3-0.3c0.1,0,0.2,0,0.4,0C54.3,6.2,56,6.2,57.8,6.2L57.8,6.2z"/>
	<path class="st3" d="M107.6,27.5c-2.3,0-4.7,0-7,0c-1.2,0-2.2-0.4-3-1.3c-0.1-0.1-0.2-0.3-0.4-0.5c-0.2-0.2-0.3-0.2-0.4,0
		c-0.4,0.6-0.8,1.2-1.5,1.7c-0.4,0.3-0.9,0.5-1.4,0.6c-0.2,0.1-0.3,0-0.4-0.2c-0.1-0.1-0.1-0.3-0.2-0.4s-0.1-0.2,0-0.3
		c0.6-0.9,0.9-2,1.1-3s0.2-2.1,0.2-3.1c0-2.8,0-5.7,0-8.5c0,0,0,0,0-0.1c0-0.4,0-0.4-0.4-0.4s-0.7,0-1.1,0c-0.3,0-0.4-0.1-0.3-0.4
		c0-0.2,0-0.4,0-0.6c0-0.3,0.1-0.4,0.4-0.4c1.2,0,2.4,0,3.6,0c0.3,0,0.6,0,0.9,0s0.3,0,0.3,0.3c0,0.8,0,1.6,0,2.4c0,2.6,0,5.3,0,7.9
		c0,0.8-0.1,1.5-0.3,2.3c0,0.1,0,0.2,0,0.3c0.3,0.9,0.7,1.6,1.6,2c0.5,0.3,1.1,0.4,1.7,0.4c4.7,0,9.4,0,14.1,0
		c0.3,0,0.4,0.1,0.4,0.4c0,0.2,0,0.4,0,0.6s-0.1,0.3-0.3,0.3c-0.2,0-0.4,0-0.6,0C112.2,27.5,109.9,27.5,107.6,27.5L107.6,27.5z"/>
	<path class="st3" d="M69.9,16.7c0-2.7,0-5.4,0-8.2c0-0.9,0-1.9-0.1-2.8c0-0.2,0.1-0.3,0.3-0.3c0.9,0,1.8,0,2.7,0
		c0.2,0,0.3,0.1,0.3,0.3c0,1.6-0.1,3.3-0.1,4.9c0,5.2,0,10.4,0,15.6c0,0.5,0,1,0,1.5c0,0.3,0,0.3-0.3,0.3c-0.9,0-1.7,0-2.6,0
		c-0.4,0-0.4,0-0.4-0.4c0-1.5,0.1-3,0.1-4.5C69.9,21,69.9,18.8,69.9,16.7L69.9,16.7z"/>
	<path class="st3" d="M129.6,8.4c-2.2,0-4.5,0-6.7,0c-0.1,0-0.3,0-0.4,0c-0.2,0-0.3,0.1-0.3,0.3c0,0.8,0,1.6,0,2.5
		c0,0.3-0.1,0.3-0.3,0.3c-0.9,0-1.8,0-2.6,0c-0.1,0-0.1,0-0.2,0c-0.2,0-0.3-0.1-0.3-0.3c0-1.2,0-2.4,0-3.5c0-0.1,0-0.1,0-0.2
		c0-0.3,0-0.3,0.3-0.3c2.9,0,5.7,0,8.6,0c0.2,0,0.3,0,0.3-0.3c0-0.4,0-0.7,0-1.1c0-0.3,0-0.4,0.4-0.4c0.9,0,1.7,0,2.6,0
		c0.1,0,0.2,0,0.3,0c0.2,0,0.3,0.1,0.3,0.3c0,0.4,0,0.8,0,1.2c0,0.2,0,0.3,0.2,0.3c2.9,0,5.7,0,8.6,0c0.3,0,0.4,0,0.4,0.4
		c0,1.2,0,2.4,0,3.6c0,0.3-0.1,0.3-0.3,0.3c-0.9,0-1.9,0-2.8,0c-0.2,0-0.3-0.1-0.3-0.3c0-0.8,0-1.6,0-2.5c0-0.3-0.1-0.3-0.3-0.3
		C134.3,8.4,131.9,8.4,129.6,8.4L129.6,8.4z"/>
	<path class="st3" d="M74,23.2c0-0.6,0-1.2,0-1.9c0-0.9-0.1-1.8-0.1-2.7c0-0.4,0-0.8,0-1.2c0-1,0-2,0-3c0-1.2-0.1-2.4-0.1-3.6
		c0-0.8-0.1-1.7-0.1-2.5c0-0.1,0-0.2,0.2-0.2c0.4,0,0.8,0,1.2,0c0.2,0,0.2,0.1,0.2,0.3c0,0.5,0,1,0,1.6c0,0.7,0,1.4,0,2
		c0,1,0.1,1.9,0.1,2.9c0,0.4,0,0.9,0,1.3c0,1.1,0,2.2,0,3.3c0,0.9,0.1,1.9,0.1,2.8c0,0.7,0,1.3,0,2c0,0.4,0,0.8,0,1.1
		c0,0.2,0,0.3-0.2,0.3c-0.4,0-0.7,0-1.1,0c-0.2,0-0.3-0.1-0.3-0.3C74,24.5,74,23.8,74,23.2L74,23.2z"/>
	<path class="st3" d="M68.2,25.4c-0.2,0-0.4,0-0.6,0c-0.1,0-0.2-0.1-0.2-0.2c0-0.4,0-0.9,0.1-1.3c0-1.1,0-2.1,0.1-3.2
		c0-1,0.1-2,0.1-3c0-0.4,0-0.8,0-1.2c0-1.1,0-2.2,0.1-3.3c0-1.1,0.1-2.2,0.1-3.3c0-0.6,0-1.1,0-1.7c0-0.2,0.1-0.3,0.3-0.3
		c0.4,0,0.8,0,1.1,0c0.2,0,0.2,0.1,0.2,0.2c0,1.1-0.1,2.2-0.1,3.3c0,0.8,0,1.7-0.1,2.5c0,0.8,0,1.6,0,2.4c0,1.3-0.1,2.5-0.1,3.8
		c0,1.2,0,2.4-0.1,3.7c0,0.4,0,0.9,0,1.3c0,0.2-0.1,0.2-0.2,0.2C68.6,25.4,68.4,25.4,68.2,25.4L68.2,25.4z"/>
	<path class="st3" d="M137.4,25.3c-0.5,0-1,0-1.4,0c-0.2,0-0.3-0.1-0.3-0.2c-0.3-0.6-0.5-1.3-0.8-1.9c-0.2-0.6-0.5-1.2-0.7-1.8
		c0-0.1-0.1-0.1-0.1-0.2c-0.1-0.1,0-0.2,0.1-0.3c0.1,0,0.1,0,0.2,0c0.9,0,1.8,0,2.8,0c0.2,0,0.3,0.1,0.3,0.2c0.3,0.8,0.6,1.6,1,2.4
		c0.2,0.5,0.4,1,0.6,1.4c0.1,0.2,0,0.3-0.2,0.3C138.3,25.3,137.9,25.4,137.4,25.3L137.4,25.3z"/>
	<path class="st3" d="M95.4,5.4c0.5,0,0.9,0,1.4,0c0.3,0,0.4,0.1,0.4,0.3c0.2,1,0.5,1.9,0.8,2.9c0.1,0.2,0,0.3-0.2,0.3s-0.5,0-0.7,0
		c-0.7,0-1.5,0-2.2,0c-0.2,0-0.3-0.1-0.4-0.3c-0.3-1-0.5-1.9-0.8-2.9c-0.1-0.2,0-0.3,0.3-0.3C94.5,5.4,94.9,5.4,95.4,5.4L95.4,5.4z"
		/>
</g>
<g>
	<path class="st3" d="M32.7,16.5c0,8.7-7.1,15.8-15.9,15.8c-8.7,0-15.7-7.1-15.7-15.8S8.2,0.7,17,0.7C25.6,0.7,32.7,7.8,32.7,16.5z
		 M9.8,15.8c0,0.1,0.1,0.1,0.1,0.2c1.3,1.7,2.7,3.4,4,5.1c0.1,0.1,0.1,0.2,0,0.3c-1,1.9-2,3.9-2.9,5.8c0,0.1-0.1,0.1-0.1,0.2l0,0
		c4.1-3.3,8.3-6.6,12.5-9.9c-1.4-1.8-2.8-3.6-4.3-5.4c1.2-2.2,2.5-4.3,3.7-6.5l0,0C18.5,9,14.2,12.4,9.8,15.8z"/>
</g>
</svg>
