<?xml version="1.0" encoding="utf-8"?>
<!-- Generator: Adobe Illustrator 21.0.0, SVG Export Plug-In . SVG Version: 6.00 Build 0)  -->
<svg version="1.1" id="图层_2" xmlns="http://www.w3.org/2000/svg" xmlns:xlink="http://www.w3.org/1999/xlink" x="0px" y="0px"
	 width="20px" height="20px" viewBox="0 0 20 20" style="enable-background:new 0 0 20 20;" xml:space="preserve">
<style type="text/css">
	.st0{fill:#FFFFFF;}
</style>
<g>
	<path class="st0" d="M10.7,8.9l-0.2-0.1c0,0,0,0,0,0c-0.1-0.1-0.3-0.1-0.5-0.1c-0.2,0-0.3,0-0.5,0.1L9.4,8.9
		C9,9.1,8.7,9.6,8.7,10.1c0,0.5,0.3,0.9,0.7,1.1l0.1,0.1c0.2,0.1,0.3,0.1,0.5,0.1c0.2,0,0.3,0,0.5-0.1c0,0,0,0,0,0l0.2-0.1
		c0.4-0.2,0.6-0.6,0.6-1.1C11.3,9.6,11.1,9.2,10.7,8.9z"/>
	<path class="st0" d="M18.5,8.1l-5.8-2.8c-1.6-1-3.8-1-5.4-0.1L1.5,8.1C0.3,8.7,0,9.6,0,10c0,0,0,0.1,0,0.1c0,0.4,0.2,1.3,1.5,1.9
		l5.9,2.9c0.8,0.5,1.7,0.7,2.7,0.7c1,0,1.9-0.3,2.7-0.7l5.8-2.8c1.3-0.6,1.4-1.5,1.5-1.9c0,0,0-0.1,0-0.1C20,9.6,19.7,8.7,18.5,8.1z
		 M11.7,12.9l-0.5,0.2c0,0,0,0,0,0c-0.4,0.1-0.8,0.2-1.2,0.2c-0.4,0-0.8-0.1-1.2-0.2l-0.4-0.2c-1-0.6-1.7-1.6-1.7-2.8
		c0-1.2,0.7-2.3,1.7-2.8L8.8,7C9.2,6.9,9.6,6.8,10,6.8c0.4,0,0.8,0.1,1.2,0.2c0,0,0,0,0,0l0.5,0.2c1,0.6,1.6,1.6,1.6,2.8
		C13.3,11.3,12.6,12.3,11.7,12.9z"/>
</g>
</svg>
