<?xml version="1.0" encoding="utf-8"?>
<!-- Generator: Adobe Illustrator 21.0.0, SVG Export Plug-In . SVG Version: 6.00 Build 0)  -->
<svg version="1.1" id="图层_2" xmlns="http://www.w3.org/2000/svg" xmlns:xlink="http://www.w3.org/1999/xlink" x="0px" y="0px"
	 width="20px" height="20px" viewBox="0 0 20 20" style="enable-background:new 0 0 20 20;" xml:space="preserve">
<style type="text/css">
	.st0{fill:#FFFFFF;}
</style>
<path class="st0" d="M10,15.6c-0.9,0-1.8-0.2-2.7-0.7L1.5,12C0.2,11.4,0,10.5,0,10.1c0,0,0-0.1,0-0.1c0-0.5,0.3-1.3,1.5-1.9l5.9-2.9
	c1.6-0.9,3.7-0.9,5.4,0.1l5.8,2.8C19.7,8.7,20,9.6,20,10c0,0,0,0.1,0,0.1c0,0.4-0.2,1.3-1.5,1.9l-5.8,2.8C11.9,15.3,11,15.6,10,15.6
	z M1.3,10.1c0,0.1,0.1,0.5,0.7,0.8L8,13.7c1.3,0.7,2.9,0.7,4.1,0l5.9-2.8c0.6-0.3,0.7-0.6,0.7-0.8c0-0.3-0.3-0.5-0.7-0.7l-5.8-2.8
	C10.8,5.7,9.2,5.7,8,6.4L2,9.3C1.6,9.5,1.4,9.8,1.3,10.1z"/>
<path class="st0" d="M11.7,7.3L11.2,7c0,0,0,0,0,0c-0.4-0.1-0.8-0.2-1.2-0.2C9.6,6.8,9.2,6.9,8.8,7L8.4,7.2c-1,0.6-1.7,1.6-1.7,2.8
	c0,1.2,0.7,2.3,1.7,2.8l0.4,0.2c0.4,0.2,0.8,0.2,1.2,0.2c0.4,0,0.8-0.1,1.2-0.2c0,0,0,0,0,0l0.5-0.2c1-0.6,1.6-1.6,1.6-2.8
	C13.3,8.9,12.6,7.8,11.7,7.3z M10.7,11.2l-0.2,0.1c0,0,0,0,0,0c-0.1,0.1-0.3,0.1-0.5,0.1c-0.2,0-0.3,0-0.5-0.1l-0.1-0.1
	C9,11,8.7,10.6,8.7,10.1c0-0.5,0.3-0.9,0.7-1.1l0.1-0.1C9.7,8.8,9.8,8.8,10,8.8c0.2,0,0.3,0,0.5,0.1c0,0,0,0,0,0l0.2,0.1
	c0.4,0.2,0.6,0.6,0.6,1.1C11.3,10.6,11.1,11,10.7,11.2z"/>
</svg>
