<?xml version="1.0" encoding="utf-8"?>
<!-- Generator: Adobe Illustrator 21.0.0, SVG Export Plug-In . SVG Version: 6.00 Build 0)  -->
<svg version="1.1" id="图层_2" xmlns="http://www.w3.org/2000/svg" xmlns:xlink="http://www.w3.org/1999/xlink" x="0px" y="0px"
	 width="20px" height="20px" viewBox="0 0 20 20" style="enable-background:new 0 0 20 20;" xml:space="preserve">
<style type="text/css">
	.st0{fill:#FFFFFF;}
</style>
<path class="st0" d="M14.2,0H5.8c-2,0-3.7,1.7-3.7,3.7v11c0,0.2,0.1,0.5,0.3,0.6l4.4,4.4C7,19.9,7.2,20,7.4,20h6.7
	c2,0,3.7-1.7,3.7-3.7V3.7C17.8,1.7,16.2,0,14.2,0z M6.7,17.1l-1.9-1.9h0.6c0.7,0,1.4,0.5,1.4,1.1V17.1z M13.3,11.7h-7
	c-0.5,0-0.9-0.4-0.9-0.9c0-0.5,0.4-0.9,0.9-0.9h7c0.5,0,0.9,0.4,0.9,0.9C14.2,11.4,13.8,11.7,13.3,11.7z M13.3,9.1h-7
	c-0.5,0-0.9-0.4-0.9-0.9c0-0.5,0.4-0.9,0.9-0.9h7c0.5,0,0.9,0.4,0.9,0.9C14.2,8.7,13.8,9.1,13.3,9.1z M13.3,6.5h-7
	c-0.5,0-0.9-0.4-0.9-0.9c0-0.5,0.4-0.9,0.9-0.9h7c0.5,0,0.9,0.4,0.9,0.9C14.2,6.1,13.8,6.5,13.3,6.5z"/>
</svg>
