<?xml version="1.0" encoding="utf-8"?>
<!-- Generator: Adobe Illustrator 21.0.0, SVG Export Plug-In . SVG Version: 6.00 Build 0)  -->
<svg version="1.1" id="图层_2" xmlns="http://www.w3.org/2000/svg" xmlns:xlink="http://www.w3.org/1999/xlink" x="0px" y="0px"
	 width="20px" height="20px" viewBox="0 0 20 20" style="enable-background:new 0 0 20 20;" xml:space="preserve">
<style type="text/css">
	.st0{fill-rule:evenodd;clip-rule:evenodd;fill:#FFFFFF;}
</style>
<g id="Menu">
	<g>
		<path class="st0" d="M10,0.1C4.5,0.1,0,4.5,0,10c0,5.5,4.5,9.9,10,9.9c5.5,0,10-4.4,10-9.9C20,4.5,15.5,0.1,10,0.1z M10,18.4
			c-4.7,0-8.4-3.8-8.4-8.4S5.3,1.6,10,1.6c4.7,0,8.4,3.8,8.4,8.4S14.6,18.4,10,18.4z M14.6,6.2H5.4C5,6.2,4.6,6.6,4.6,7
			S5,7.8,5.4,7.8h9.2c0.4,0,0.8-0.3,0.8-0.8S15,6.2,14.6,6.2z M14.6,9.3H5.4C5,9.3,4.6,9.6,4.6,10c0,0.4,0.3,0.8,0.8,0.8h9.2
			c0.4,0,0.8-0.3,0.8-0.8C15.4,9.6,15,9.3,14.6,9.3z M14.6,12.3H5.4c-0.4,0-0.8,0.3-0.8,0.8c0,0.4,0.3,0.8,0.8,0.8h9.2
			c0.4,0,0.8-0.3,0.8-0.8C15.4,12.7,15,12.3,14.6,12.3z"/>
	</g>
</g>
</svg>
