<?xml version="1.0" encoding="utf-8"?>
<!-- Generator: Adobe Illustrator 21.0.0, SVG Export Plug-In . SVG Version: 6.00 Build 0)  -->
<svg version="1.1" id="图层_2" xmlns="http://www.w3.org/2000/svg" xmlns:xlink="http://www.w3.org/1999/xlink" x="0px" y="0px"
	 width="20px" height="20px" viewBox="0 0 20 20" style="enable-background:new 0 0 20 20;" xml:space="preserve">
<style type="text/css">
	.st0{fill-rule:evenodd;clip-rule:evenodd;fill:#FFFFFF;}
</style>
<g id="List_1_">
	<g>
		<path class="st0" d="M14.2,0H5.8c-2,0-3.7,1.7-3.7,3.7v11c0,0.2,0.1,0.5,0.3,0.6l4.4,4.4C7,19.9,7.2,20,7.4,20h6.7
			c2,0,3.7-1.7,3.7-3.7V3.7C17.8,1.7,16.2,0,14.2,0z M6.7,17.1l-1.9-1.9h0.6c0.7,0,1.4,0.5,1.4,1.1V17.1z M16.1,16.3
			c0,1.1-0.9,1.9-1.9,1.9H8.4v-2c0-1.5-1.4-2.8-3.1-2.8H3.9V3.7c0-1.1,0.9-1.9,1.9-1.9h8.4c1.1,0,1.9,0.9,1.9,1.9V16.3z M13.3,4.7
			h-7c-0.5,0-0.9,0.4-0.9,0.9c0,0.5,0.4,0.9,0.9,0.9h7c0.5,0,0.9-0.4,0.9-0.9C14.2,5.1,13.8,4.7,13.3,4.7z M13.3,7.4h-7
			c-0.5,0-0.9,0.4-0.9,0.9c0,0.5,0.4,0.9,0.9,0.9h7c0.5,0,0.9-0.4,0.9-0.9C14.2,7.8,13.8,7.4,13.3,7.4z M13.3,10h-7
			c-0.5,0-0.9,0.4-0.9,0.9c0,0.5,0.4,0.9,0.9,0.9h7c0.5,0,0.9-0.4,0.9-0.9C14.2,10.4,13.8,10,13.3,10z"/>
	</g>
</g>
</svg>
