<?xml version="1.0" encoding="utf-8"?>
<!-- Generator: Adobe Illustrator 21.0.0, SVG Export Plug-In . SVG Version: 6.00 Build 0)  -->
<svg version="1.1" id="图层_1" xmlns="http://www.w3.org/2000/svg" xmlns:xlink="http://www.w3.org/1999/xlink" x="0px" y="0px"
	 width="31px" height="31px" viewBox="0 0 31 31" style="enable-background:new 0 0 31 31;" xml:space="preserve">
<style type="text/css">
	.st0{fill-rule:evenodd;clip-rule:evenodd;fill:#907F5F;}
</style>
<g id="Profile_x5F_1_1_">
	<g>
		<path class="st0" d="M29.1,23.6l-1.2-2.5c-1-2-3.3-3.2-5.2-3.3c-0.6,0-1.7-0.2-2.6-0.5c-0.2-0.1-0.5-0.1-0.6-0.2
			c1.9-1.6,3-4.2,3-7c0-4.8-3.3-8.7-7.4-8.7c-4.1,0-7.4,3.9-7.4,8.7c0,2.8,1.1,5.4,3.1,7c-0.2,0.1-0.4,0.1-0.7,0.2
			c-1.2,0.3-2.1,0.5-2.6,0.5c-1.8,0.2-4.2,1.4-5.2,3.4L1,23.9c-0.6,1.1-0.5,2.6,0,3.5c0.3,0.5,1.3,2.1,2.9,2.1h22.4
			c1.6,0,2.5-1.5,2.9-2.1C29.7,26.4,29.6,24.6,29.1,23.6z M27,26.1c-0.4,0.7-0.7,0.8-0.7,0.9L3.9,27c0,0-0.3-0.1-0.7-0.9
			C3.1,26,3.1,25.4,3.3,25l1.2-2.6c0.5-1.1,2.1-1.9,3.2-2c0.8-0.1,2.2-0.4,3-0.6c1.7-0.4,2.3-0.7,2.5-1c0.3-0.2,0.5-0.6,0.4-1
			c0-0.8-0.3-1.5-0.8-2.2c-0.1-0.1-0.2-0.2-0.3-0.3c-1.5-1.1-2.3-3.1-2.3-5.2c0-3.4,2.2-6.1,4.9-6.1c2.7,0,4.9,2.7,4.9,6.1
			c0,2.1-0.9,4.1-2.3,5.2c-0.1,0.1-0.2,0.1-0.2,0.2c-0.5,0.7-0.8,1.4-0.8,2.3c0,0.4,0.2,0.7,0.4,1c0.3,0.2,0.8,0.5,2.5,0.9
			c1,0.2,2.2,0.5,2.9,0.5c1.1,0.1,2.6,0.9,3.2,1.9l1.2,2.5C27.1,25.1,27.1,25.9,27,26.1z"/>
	</g>
</g>
</svg>
