<?xml version="1.0" encoding="utf-8"?>
<!-- Generator: Adobe Illustrator 21.0.0, SVG Export Plug-In . SVG Version: 6.00 Build 0)  -->
<svg version="1.1" id="图层_1" xmlns="http://www.w3.org/2000/svg" xmlns:xlink="http://www.w3.org/1999/xlink" x="0px" y="0px"
	 width="33px" height="33px" viewBox="0 0 33 33" style="enable-background:new 0 0 33 33;" xml:space="preserve">
<style type="text/css">
	.st0{fill-rule:evenodd;clip-rule:evenodd;fill:#27A59A;}
</style>
<g id="Mark_1_">
	<g>
		<path class="st0" d="M28.2,13.3h-2.6V5.9c0-0.5-0.4-0.8-0.8-0.8H8.3c-0.5,0-0.8,0.4-0.8,0.8v7.4H4.8c-0.5,0-0.8,0.4-0.8,0.8v5
			c0,0.4,0.2,0.7,0.6,0.8l2.9,2.2c0.1,1.2,0.7,2.3,1.7,2.9l6.9,4.8c0.1,0.1,0.3,0.2,0.5,0.2s0.3,0,0.5-0.2l6.9-4.8
			c1-0.7,1.6-1.8,1.7-2.9l2.9-2.2c0.3-0.1,0.6-0.4,0.6-0.8v-5C29,13.7,28.6,13.3,28.2,13.3z M23.9,21.8c0,0.8-0.4,1.5-1,1.9
			l-6.4,4.5l-6.4-4.5c-0.6-0.4-1-1.1-1-1.9V20h14.8V21.8z M23.9,13.3H9.1V6.7h14.8V13.3z"/>
	</g>
</g>
</svg>
