<?xml version="1.0" encoding="utf-8"?>
<!-- Generator: Adobe Illustrator 21.0.0, SVG Export Plug-In . SVG Version: 6.00 Build 0)  -->
<svg version="1.1" id="图层_1" xmlns="http://www.w3.org/2000/svg" xmlns:xlink="http://www.w3.org/1999/xlink" x="0px" y="0px"
	 width="33px" height="33px" viewBox="0 0 33 33" style="enable-background:new 0 0 33 33;" xml:space="preserve">
<style type="text/css">
	.st0{fill-rule:evenodd;clip-rule:evenodd;fill:#D16634;}
</style>
<g id="Profile_x5F_4_1_">
	<g>
		<path class="st0" d="M16.5,4.1C9.6,4.1,4,9.6,4,16.5c0,3.5,1.5,6.7,3.9,9c0,0,0,0,0,0c0,0,0.1,0,0.1,0.1c2.2,2.1,5.2,3.4,8.6,3.4
			c3.4,0,6.5-1.4,8.8-3.6c0,0,0,0,0,0c0,0,0,0,0,0c2.3-2.3,3.7-5.4,3.7-8.8C29,9.6,23.4,4.1,16.5,4.1z M24.6,23.6
			c-0.7-0.5-1.6-0.8-2.4-0.9c-0.4,0-1.3-0.2-2-0.3c-0.3-0.1-0.5-0.1-0.7-0.2c0,0,0,0,0,0C21.1,21,22,19.1,22,17
			c0-3.5-2.5-6.3-5.5-6.3c-3,0-5.5,2.8-5.5,6.3c0,2.1,0.9,4,2.3,5.2c0,0,0.1,0.1,0.1,0.1c-0.2,0.1-0.4,0.1-0.7,0.2
			c-0.2,0.1-0.5,0.1-0.7,0.2c-0.5,0.1-1,0.3-1.3,0.3c-0.7,0.1-1.5,0.4-2.2,0.8c-1.8-1.9-2.9-4.5-2.9-7.3c0-5.9,4.9-10.8,10.8-10.8
			c6,0,10.8,4.8,10.8,10.8C27.3,19.2,26.3,21.7,24.6,23.6z"/>
	</g>
</g>
</svg>
