<?xml version="1.0" encoding="utf-8"?>
<!-- Generator: Adobe Illustrator 21.0.0, SVG Export Plug-In . SVG Version: 6.00 Build 0)  -->
<svg version="1.1" id="图层_1" xmlns="http://www.w3.org/2000/svg" xmlns:xlink="http://www.w3.org/1999/xlink" x="0px" y="0px"
	 width="33px" height="33px" viewBox="0 0 33 33" style="enable-background:new 0 0 33 33;" xml:space="preserve">
<style type="text/css">
	.st0{fill-rule:evenodd;clip-rule:evenodd;fill:#2F7DB9;}
</style>
<g id="Featured_1_">
	<g>
		<path class="st0" d="M21.9,10.9L21.9,10.9l-3.6,0l-1.1-3.4C17.1,7.3,16.8,7,16.5,7c-0.3,0-0.6,0.2-0.7,0.5l-1.1,3.4l-3.6,0h0
			c-0.3,0-0.6,0.2-0.7,0.5c-0.1,0.3,0,0.6,0.3,0.8l2.9,2.1l-1.1,3.4c-0.1,0.3,0,0.6,0.3,0.8c0.1,0.1,0.3,0.1,0.4,0.1
			c0.2,0,0.3,0,0.4-0.1l2.9-2.1l2.9,2.1c0.1,0.1,0.3,0.1,0.4,0.1c0.2,0,0.3,0,0.4-0.1c0.3-0.2,0.4-0.5,0.3-0.8l-1.1-3.4l2.9-2.1
			c0.3-0.2,0.4-0.5,0.3-0.8C22.5,11.1,22.2,10.9,21.9,10.9z M16.5,1.9C10,1.9,4.7,7.1,4.7,13.6c0,4.2,2.2,8,5.9,10.1V31
			c0,0.4,0.2,0.7,0.6,0.9c0.4,0.2,0.8,0.1,1.1-0.1l4.3-3.3l4.3,3.3c0.2,0.1,0.4,0.2,0.6,0.2c0.2,0,0.3,0,0.5-0.1
			c0.4-0.2,0.6-0.5,0.6-0.9v-7.4c3.6-2.1,5.8-5.9,5.8-10C28.3,7.1,23,1.9,16.5,1.9z M21,22.1c-0.3,0.1-0.5,0.4-0.5,0.7
			c0,0.1,0,0.2,0,0.3v5.8l-3.3-2.5c-0.2-0.1-0.4-0.2-0.6-0.2c-0.2,0-0.4,0.1-0.6,0.2l-3.3,2.5v-5.8c0-0.4-0.2-0.7-0.6-0.9
			c-3.3-1.7-5.3-4.9-5.3-8.6c0-5.3,4.4-9.6,9.8-9.6c5.4,0,9.8,4.3,9.8,9.6C26.3,17.2,24.2,20.4,21,22.1z"/>
	</g>
</g>
</svg>
