<?xml version="1.0" encoding="utf-8"?>
<!-- Generator: Adobe Illustrator 21.0.0, SVG Export Plug-In . SVG Version: 6.00 Build 0)  -->
<svg version="1.1" id="图层_2" xmlns="http://www.w3.org/2000/svg" xmlns:xlink="http://www.w3.org/1999/xlink" x="0px" y="0px"
	 width="20px" height="20px" viewBox="0 0 20 20" style="enable-background:new 0 0 20 20;" xml:space="preserve">
<style type="text/css">
	.st0{fill-rule:evenodd;clip-rule:evenodd;fill:#FFFFFF;}
</style>
<g id="Mail_1_">
	<g>
		<path class="st0" d="M17.7,2H2.4c-1.3,0-2.3,1-2.3,2.3v11.3c0,1.3,1,2.3,2.3,2.3h15.3c1.3,0,2.3-1,2.3-2.3V4.3C20,3.1,19,2,17.7,2
			z M18.4,15.7c0,0.4-0.3,0.7-0.7,0.7H2.4c-0.4,0-0.7-0.3-0.7-0.7V4.3C1.7,4,2,3.6,2.4,3.6h15.3c0.4,0,0.7,0.3,0.7,0.7V15.7z
			 M13.4,9.9L17,6.2c0.3-0.3,0.3-0.8,0-1.1c-0.3-0.3-0.8-0.3-1.1,0L10,10.9L4.3,5.2C4,4.9,3.5,4.9,3.2,5.2C2.9,5.5,2.9,6,3.2,6.3
			L6.8,10l-3.6,3.6c-0.3,0.3-0.3,0.8,0,1.1c0.2,0.2,0.4,0.2,0.6,0.2c0.2,0,0.4-0.1,0.6-0.2l3.6-3.6l1.5,1.5c0.2,0.2,0.4,0.2,0.6,0.2
			s0.4-0.1,0.6-0.2l1.6-1.6l3.7,3.7c0.2,0.2,0.4,0.2,0.6,0.2c0.2,0,0.4-0.1,0.6-0.2c0.3-0.3,0.3-0.8,0-1.1L13.4,9.9z"/>
	</g>
</g>
</svg>
