<?xml version="1.0" encoding="utf-8"?>
<!-- Generator: Adobe Illustrator 21.0.0, SVG Export Plug-In . SVG Version: 6.00 Build 0)  -->
<svg version="1.1" id="图层_2" xmlns="http://www.w3.org/2000/svg" xmlns:xlink="http://www.w3.org/1999/xlink" x="0px" y="0px"
	 width="20px" height="20px" viewBox="0 0 20 20" style="enable-background:new 0 0 20 20;" xml:space="preserve">
<style type="text/css">
	.st0{fill:#FFFFFF;}
</style>
<path class="st0" d="M15.5,3.4H4.5c-1.2,0-2.2,1-2.2,2.2v5.9c0,1.2,1,2.2,2.2,2.2h10.9c1.2,0,2.2-1,2.2-2.2V5.6
	C17.7,4.4,16.7,3.4,15.5,3.4z M13.9,7.3l-3.2,3.1c-0.1,0.1-0.3,0.2-0.5,0.2c-0.2,0-0.4-0.1-0.5-0.2L8.2,9l-1.4,1.4
	c-0.3,0.3-0.8,0.3-1,0c-0.3-0.3-0.3-0.7,0-1l1.9-1.9c0.3-0.3,0.8-0.3,1,0l1.5,1.4l2.6-2.6c0.3-0.3,0.8-0.3,1,0
	C14.2,6.5,14.2,7,13.9,7.3z"/>
<path class="st0" d="M17,1.2H3c-1.6,0-3,1.3-3,2.9v8.8c0,1.6,1.3,2.9,3,2.9h5.8l-2.4,2.4c-0.3,0.3-0.3,0.8,0,1
	c0.1,0.1,0.3,0.2,0.5,0.2c0.2,0,0.4-0.1,0.5-0.2l2.7-2.8l2.8,2.8c0.3,0.3,0.8,0.3,1,0c0.3-0.3,0.3-0.7,0-1l-2.4-2.4H17
	c1.6,0,3-1.3,3-2.9V4.1C20,2.5,18.7,1.2,17,1.2z M18.5,12.9c0,0.8-0.7,1.5-1.5,1.5H3c-0.8,0-1.5-0.7-1.5-1.5V4.1
	c0-0.8,0.7-1.5,1.5-1.5H17c0.8,0,1.5,0.7,1.5,1.5V12.9z"/>
</svg>
