<?xml version="1.0" encoding="utf-8"?>
<!-- Generator: Adobe Illustrator 21.0.0, SVG Export Plug-In . SVG Version: 6.00 Build 0)  -->
<svg version="1.1" id="图层_2" xmlns="http://www.w3.org/2000/svg" xmlns:xlink="http://www.w3.org/1999/xlink" x="0px" y="0px"
	 width="20px" height="20px" viewBox="0 0 20 20" style="enable-background:new 0 0 20 20;" xml:space="preserve">
<style type="text/css">
	.st0{fill-rule:evenodd;clip-rule:evenodd;fill:#FFFFFF;}
</style>
<g id="Stats_x5F_3">
	<g>
		<path class="st0" d="M12.8,6.3l-2.6,2.6L8.7,7.4c-0.3-0.3-0.8-0.3-1,0L5.8,9.3c-0.3,0.3-0.3,0.7,0,1c0.3,0.3,0.8,0.3,1,0L8.2,9
			l1.5,1.4c0.1,0.1,0.3,0.2,0.5,0.2c0.2,0,0.4-0.1,0.5-0.2l3.2-3.1c0.3-0.3,0.3-0.7,0-1C13.6,6,13.1,6,12.8,6.3z M15.5,3.4H4.5
			c-1.2,0-2.2,1-2.2,2.2v5.9c0,1.2,1,2.2,2.2,2.2h10.9c1.2,0,2.2-1,2.2-2.2V5.6C17.7,4.4,16.7,3.4,15.5,3.4z M16.2,11.5
			c0,0.4-0.3,0.7-0.8,0.7H4.5c-0.4,0-0.8-0.3-0.8-0.7V5.6c0-0.4,0.3-0.7,0.8-0.7h10.9c0.4,0,0.8,0.3,0.8,0.7V11.5z M17,1.2H3
			c-1.6,0-3,1.3-3,2.9v8.8c0,1.6,1.3,2.9,3,2.9h5.8l-2.4,2.4c-0.3,0.3-0.3,0.8,0,1c0.1,0.1,0.3,0.2,0.5,0.2c0.2,0,0.4-0.1,0.5-0.2
			l2.7-2.8l2.8,2.8c0.3,0.3,0.8,0.3,1,0c0.3-0.3,0.3-0.7,0-1l-2.4-2.4H17c1.6,0,3-1.3,3-2.9V4.1C20,2.5,18.7,1.2,17,1.2z M18.5,12.9
			c0,0.8-0.7,1.5-1.5,1.5H3c-0.8,0-1.5-0.7-1.5-1.5V4.1c0-0.8,0.7-1.5,1.5-1.5H17c0.8,0,1.5,0.7,1.5,1.5V12.9z"/>
	</g>
</g>
</svg>
