<?xml version="1.0" encoding="utf-8"?>
<!-- Generator: Adobe Illustrator 21.0.0, SVG Export Plug-In . SVG Version: 6.00 Build 0)  -->
<svg version="1.1" id="图层_2" xmlns="http://www.w3.org/2000/svg" xmlns:xlink="http://www.w3.org/1999/xlink" x="0px" y="0px"
	 width="20px" height="20px" viewBox="0 0 20 20" style="enable-background:new 0 0 20 20;" xml:space="preserve">
<style type="text/css">
	.st0{fill-rule:evenodd;clip-rule:evenodd;fill:#FFFFFF;}
</style>
<g id="Featured_1_">
	<g>
		<path class="st0" d="M13.6,6L13.6,6l-2.4,0l-0.7-2.2c-0.1-0.2-0.3-0.3-0.5-0.3c-0.2,0-0.4,0.1-0.5,0.3L8.8,6L6.4,6h0
			C6.2,6,6,6.1,5.9,6.3c-0.1,0.2,0,0.4,0.2,0.6L8,8.2l-0.7,2.2c-0.1,0.2,0,0.4,0.2,0.6c0.1,0.1,0.2,0.1,0.3,0.1c0.1,0,0.2,0,0.3-0.1
			L10,9.6l1.9,1.4c0.1,0.1,0.2,0.1,0.3,0.1c0.1,0,0.2,0,0.3-0.1c0.2-0.1,0.2-0.3,0.2-0.6l-0.7-2.2l1.9-1.4C14,6.7,14.1,6.5,14,6.3
			C14,6.1,13.8,6,13.6,6z M10,0C5.7,0,2.1,3.5,2.1,7.8c0,2.8,1.5,5.3,3.9,6.7v4.9c0,0.3,0.1,0.5,0.4,0.6C6.7,20,6.9,20,7.2,19.9
			l2.9-2.2l2.9,2.2C13,20,13.2,20,13.3,20c0.1,0,0.2,0,0.3-0.1c0.2-0.1,0.4-0.3,0.4-0.6v-4.9c2.4-1.4,3.8-3.9,3.8-6.7
			C17.9,3.5,14.3,0,10,0z M13,13.4c-0.2,0.1-0.3,0.3-0.4,0.5c0,0.1,0,0.1,0,0.2v3.9l-2.2-1.7c-0.1-0.1-0.3-0.1-0.4-0.1
			c-0.1,0-0.3,0-0.4,0.1l-2.2,1.7v-3.9c0-0.3-0.1-0.5-0.4-0.6c-2.2-1.1-3.5-3.3-3.5-5.7c0-3.5,2.9-6.4,6.5-6.4
			c3.6,0,6.5,2.9,6.5,6.4C16.5,10.1,15.2,12.3,13,13.4z"/>
	</g>
</g>
</svg>
