<?xml version="1.0" encoding="utf-8"?>
<!-- Generator: Adobe Illustrator 21.0.0, SVG Export Plug-In . SVG Version: 6.00 Build 0)  -->
<svg version="1.1" id="图层_2" xmlns="http://www.w3.org/2000/svg" xmlns:xlink="http://www.w3.org/1999/xlink" x="0px" y="0px"
	 width="20px" height="20px" viewBox="0 0 20 20" style="enable-background:new 0 0 20 20;" xml:space="preserve">
<style type="text/css">
	.st0{fill:#FFFFFF;}
</style>
<path class="st0" d="M10,0C5.7,0,2.1,3.5,2.1,7.8c0,2.8,1.5,5.3,3.9,6.7v4.9c0,0.3,0.1,0.5,0.4,0.6C6.7,20,6.9,20,7.2,19.9l2.9-2.2
	l2.9,2.2C13,20,13.2,20,13.3,20c0.1,0,0.2,0,0.3-0.1c0.2-0.1,0.4-0.3,0.4-0.6v-4.9c2.4-1.4,3.8-3.9,3.8-6.7C17.9,3.5,14.3,0,10,0z
	 M13.9,6.9l-1.9,1.4l0.7,2.2c0.1,0.2,0,0.4-0.2,0.6c-0.1,0.1-0.2,0.1-0.3,0.1c-0.1,0-0.2,0-0.3-0.1L10,9.6L8.1,11
	c-0.1,0.1-0.2,0.1-0.3,0.1c-0.1,0-0.2,0-0.3-0.1c-0.2-0.1-0.2-0.3-0.2-0.6L8,8.2L6.1,6.9C5.9,6.7,5.8,6.5,5.9,6.3C6,6.1,6.2,6,6.4,6
	h0l2.4,0l0.7-2.2C9.6,3.5,9.8,3.4,10,3.4c0.2,0,0.4,0.1,0.5,0.3L11.2,6l2.4,0c0,0,0,0,0,0C13.8,6,14,6.1,14,6.3
	C14.1,6.5,14,6.7,13.9,6.9z"/>
</svg>
