<?xml version="1.0" encoding="utf-8"?>
<!-- Generator: Adobe Illustrator 21.0.0, SVG Export Plug-In . SVG Version: 6.00 Build 0)  -->
<svg version="1.1" id="图层_1" xmlns="http://www.w3.org/2000/svg" xmlns:xlink="http://www.w3.org/1999/xlink" x="0px" y="0px"
	 width="40px" height="37.4px" viewBox="0 0 40 37.4" style="enable-background:new 0 0 40 37.4;" xml:space="preserve">
<style type="text/css">
	.st0{fill-rule:evenodd;clip-rule:evenodd;}
	.st1{display:none;}
	.st2{display:inline;}
	.st3{display:inline;}
	.st4{fill-rule:evenodd;clip-rule:evenodd;}
</style>
<g id="Money">
	<g>
		<path class="st0" d="M20,24.6c11.2,0,20-5.4,20-12.3C40,5.4,31.2,0,20,0C8.8,0,0,5.4,0,12.3C0,19.2,8.8,24.6,20,24.6z M20,3.1
			c9.2,0,16.9,4.2,16.9,9.2c0,5-7.7,9.2-16.9,9.2c-9.2,0-16.9-4.2-16.9-9.2C3.1,7.3,10.8,3.1,20,3.1z M38.2,20.8
			c-0.7-0.5-1.7-0.2-2.1,0.5c-2.4,3.8-8.8,6.4-16,6.4c-7.2,0-13.7-2.6-16-6.4c-0.5-0.7-1.4-0.9-2.1-0.5c-0.7,0.5-0.9,1.4-0.5,2.1
			c3,4.7,10.3,7.8,18.6,7.8c8.4,0,15.7-3.1,18.7-7.8C39.1,22.2,38.9,21.3,38.2,20.8z M38.2,27.5c-0.7-0.5-1.7-0.2-2.1,0.5
			c-2.4,3.8-8.8,6.4-16,6.4c-7.2,0-13.7-2.6-16-6.4c-0.5-0.7-1.4-0.9-2.1-0.5c-0.7,0.5-0.9,1.4-0.5,2.1c3,4.7,10.3,7.8,18.6,7.8
			c8.4,0,15.7-3.1,18.7-7.8C39.1,28.9,38.9,28,38.2,27.5z"/>
	</g>
</g>
<g class="st1">
	<path class="st2" d="M24.9,8.8l-3.7-6.4c-0.7-1.3-2.6-1.3-3.3,0l-3.7,6.4c-0.7,1.3,0.2,2.9,1.7,2.9h1.9v12.8c0,1,0.8,1.8,1.8,1.8
		c1,0,1.8-0.8,1.8-1.8V11.7h1.9C24.7,11.7,25.6,10.1,24.9,8.8z"/>
	<path class="st2" d="M37.2,22.2c-1,0-1.8,0.8-1.8,1.8v8c0,0.8-0.7,1.5-1.5,1.5H20.6h-1.1H6.2c-0.8,0-1.5-0.7-1.5-1.5v-8
		c0-1-0.8-1.8-1.8-1.8c-1,0-1.8,0.8-1.8,1.8v8c0,2.8,2.3,5,5,5h13.4h1.1H34c2.8,0,5-2.2,5-5v-8C39,22.9,38.2,22.2,37.2,22.2z"/>
</g>
<g id="Wallet_1_" class="st1">
	<g class="st3">
		<path class="st4" d="M36.2,10.1V5.7c0-0.7-0.6-1.3-1.3-1.3H32c-0.8-2.3-2.9-3.9-5.5-3.9H7C3.8,0.5,1.3,3,1.2,6.2c0,0,0,0.1,0,0.1
			v26c0,2.5,2,4.5,4.5,4.5h28.6c2.5,0,4.5-2,4.5-4.5V14.2C38.8,12.4,37.8,10.8,36.2,10.1z M33.6,7v2.6H7.9C8.4,8.1,9.8,7,11.5,7
			H33.6z M7,3.1h19.6c1.1,0,2,0.5,2.6,1.3H11.5c-2.9,0-5.4,2-6.2,4.7C4.4,8.6,3.8,7.6,3.8,6.3C3.8,4.6,5.2,3.1,7,3.1z M36.2,25.2
			h-5.1c-0.8,0-1.4-0.6-1.4-1.4v-1.1c0-0.8,0.6-1.4,1.4-1.4h5.1V25.2z M36.2,18.7h-5.1c-2.2,0-4,1.8-4,4v1.1c0,2.2,1.8,4,4,4h5.1
			v4.5c0,1.1-0.9,1.9-1.9,1.9H5.7c-1.1,0-1.9-0.9-1.9-1.9V11.3c0.6,0.4,1.3,0.7,2.1,0.9c0.2,0.1,0.3,0.1,0.5,0.1h27.9
			c1.1,0,1.9,0.9,1.9,1.9V18.7z"/>
	</g>
</g>
<g id="Repost" class="st1">
	<g class="st3">
		<path class="st4" d="M25.1,30l-6.6-3.8c-1.3-0.8-3,0.2-3,1.7v1.9H6.8v-24c0-1-0.8-1.8-1.8-1.8S3.1,4.7,3.1,5.8v24.3
			c0,1.9,1.5,3.4,3.4,3.4h9.1v1.9c0,1.5,1.6,2.5,3,1.7l6.6-3.8C26.4,32.6,26.4,30.7,25.1,30z M33,3.9h-8.7V2c0-1.5-1.6-2.5-3-1.7
			l-6.6,3.8c-1.3,0.8-1.3,2.7,0,3.4l6.6,3.8c1.3,0.8,3-0.2,3-1.7V7.6h8.4v24c0,1,0.8,1.9,1.8,1.9c1,0,1.8-0.8,1.8-1.9V7.3
			C36.4,5.5,34.9,3.9,33,3.9z"/>
	</g>
</g>
<g class="st1">
	<path class="st2" d="M24.9,19l-3.7,6.4c-0.7,1.3-2.6,1.3-3.3,0L14.2,19c-0.7-1.3,0.2-2.9,1.7-2.9h1.9V3.3c0-1,0.8-1.8,1.8-1.8
		c1,0,1.8,0.8,1.8,1.8v12.8h1.9C24.7,16.1,25.6,17.7,24.9,19z"/>
	<path class="st2" d="M37.2,22.2c-1,0-1.8,0.8-1.8,1.8v8c0,0.8-0.7,1.5-1.5,1.5H20.6h-1.1H6.2c-0.8,0-1.5-0.7-1.5-1.5v-8
		c0-1-0.8-1.8-1.8-1.8c-1,0-1.8,0.8-1.8,1.8v8c0,2.8,2.3,5,5,5h13.4h1.1H34c2.8,0,5-2.2,5-5v-8C39,22.9,38.2,22.2,37.2,22.2z"/>
</g>
</svg>
