<?xml version="1.0" encoding="utf-8"?>
<!-- Generator: Adobe Illustrator 21.0.0, SVG Export Plug-In . SVG Version: 6.00 Build 0)  -->
<svg version="1.1" id="图层_1" xmlns="http://www.w3.org/2000/svg" xmlns:xlink="http://www.w3.org/1999/xlink" x="0px" y="0px"
	 width="20px" height="20px" viewBox="0 0 20 20" style="enable-background:new 0 0 20 20;" xml:space="preserve">
<style type="text/css">
	.st0{fill-rule:evenodd;clip-rule:evenodd;fill:#FFFFFF;}
</style>
<g id="Profile_x5F_1_1_">
	<g>
		<path class="st0" d="M18,15.7l-0.7-1.4c-0.6-1.1-1.9-1.8-3-1.9c-0.3,0-0.9-0.1-1.5-0.3c-0.1,0-0.3-0.1-0.4-0.1
			c1.1-0.9,1.7-2.4,1.7-4c0-2.7-1.9-4.9-4.2-4.9C7.7,3.1,5.8,5.3,5.8,8c0,1.6,0.6,3.1,1.7,4c-0.1,0-0.2,0.1-0.4,0.1
			c-0.7,0.2-1.2,0.3-1.5,0.3c-1,0.1-2.4,0.8-3,2L2,15.9c-0.3,0.6-0.3,1.5,0,2C2.2,18.2,2.7,19,3.6,19h12.7c0.9,0,1.5-0.9,1.6-1.2
			C18.4,17.3,18.3,16.3,18,15.7z"/>
	</g>
</g>
</svg>
