<?xml version="1.0" encoding="utf-8"?>
<!-- Generator: Adobe Illustrator 21.0.0, SVG Export Plug-In . SVG Version: 6.00 Build 0)  -->
<svg version="1.1" id="图层_1" xmlns="http://www.w3.org/2000/svg" xmlns:xlink="http://www.w3.org/1999/xlink" x="0px" y="0px"
	 width="20px" height="20px" viewBox="0 0 20 20" style="enable-background:new 0 0 20 20;" xml:space="preserve">
<style type="text/css">
	.st0{fill-rule:evenodd;clip-rule:evenodd;}
</style>
<g id="Money">
	<g>
		<path class="st0" d="M10,13c5.1,0,9-2.4,9-5.5c0-3.1-4-5.5-9-5.5c-5.1,0-9,2.4-9,5.5C1,10.6,4.9,13,10,13z M10,3.3
			c4.1,0,7.6,1.9,7.6,4.2c0,2.3-3.5,4.2-7.6,4.2c-4.1,0-7.6-1.9-7.6-4.2C2.4,5.2,5.9,3.3,10,3.3z M18.2,11.3c-0.3-0.2-0.8-0.1-1,0.2
			c-1.1,1.7-4,2.9-7.2,2.9c-3.2,0-6.2-1.2-7.2-2.9c-0.2-0.3-0.6-0.4-1-0.2c-0.3,0.2-0.4,0.6-0.2,1c1.3,2.1,4.6,3.5,8.4,3.5
			c3.8,0,7.1-1.4,8.4-3.5C18.6,11.9,18.5,11.5,18.2,11.3z M18.2,14.3c-0.3-0.2-0.8-0.1-1,0.2c-1.1,1.7-4,2.9-7.2,2.9
			c-3.2,0-6.2-1.1-7.2-2.9c-0.2-0.3-0.6-0.4-1-0.2c-0.3,0.2-0.4,0.6-0.2,1c1.3,2.1,4.6,3.5,8.4,3.5c3.8,0,7.1-1.4,8.4-3.5
			C18.6,14.9,18.5,14.5,18.2,14.3z"/>
	</g>
</g>
<ellipse class="st0" cx="10" cy="7.4" rx="8.3" ry="4.9"/>
</svg>
