<?xml version="1.0" encoding="utf-8"?>
<!-- Generator: Adobe Illustrator 21.0.0, SVG Export Plug-In . SVG Version: 6.00 Build 0)  -->
<svg version="1.1" id="图层_1" xmlns="http://www.w3.org/2000/svg" xmlns:xlink="http://www.w3.org/1999/xlink" x="0px" y="0px"
	 width="41px" height="41px" viewBox="0 0 41 41" style="enable-background:new 0 0 41 41;" xml:space="preserve">
<style type="text/css">
	.st0{fill-rule:evenodd;clip-rule:evenodd;}
</style>
<g>
	<g>
		<path class="st0" d="M17.8,35.4c-1.5,0-2.7,1.2-2.7,2.7c0,1.5,1.2,2.7,2.7,2.7c1.5,0,2.7-1.2,2.7-2.7
			C20.5,36.6,19.3,35.4,17.8,35.4z M23.2,25.1c0.6,1,2,1,2.6,0l2.9-5.1c0.6-1-0.1-2.3-1.3-2.3h-1V9.3l0,0C25,7.9,24,8.5,23.6,8.9
			v8.7h-2c-1.2,0-1.9,1.3-1.3,2.3L23.2,25.1z M33,35.4c-1.5,0-2.7,1.2-2.7,2.7c0,1.5,1.2,2.7,2.7,2.7s2.7-1.2,2.7-2.7
			C35.7,36.6,34.5,35.4,33,35.4z M39.2,21.4c-0.8-0.4-1.7,0-2,0.7l-3.8,8.7H16.3L8.4,13c-0.1-0.1-0.2-0.3-0.3-0.4
			c-0.3-0.5-0.8-0.8-1.3-0.8H2.3c-0.8,0-1.5,0.7-1.5,1.5c0,0.8,0.7,1.5,1.5,1.5h3.6l7.7,17.3c0,0,0,0.1,0.1,0.1c0,0,0,0,0,0
			c0,0.8,0.7,1.5,1.5,1.5h19c0.2,0,0.3,0,0.4-0.1c0.5-0.1,0.9-0.4,1.2-0.9l4.1-9.5C40.2,22.7,39.9,21.8,39.2,21.4z"/>
	</g>
</g>
</svg>
