<?xml version="1.0" encoding="utf-8"?>
<!-- Generator: Adobe Illustrator 21.0.0, SVG Export Plug-In . SVG Version: 6.00 Build 0)  -->
<svg version="1.1" id="图层_1" xmlns="http://www.w3.org/2000/svg" xmlns:xlink="http://www.w3.org/1999/xlink" x="0px" y="0px"
	 width="41px" height="41px" viewBox="0 0 41 41" style="enable-background:new 0 0 41 41;" xml:space="preserve">
<style type="text/css">
	.st0{fill-rule:evenodd;clip-rule:evenodd;}
</style>
<g>
	<g>
		<path class="st0" d="M17.8,35.4c-1.5,0-2.7,1.2-2.7,2.7c0,1.5,1.2,2.7,2.7,2.7c1.5,0,2.7-1.2,2.7-2.7
			C20.5,36.6,19.3,35.4,17.8,35.4z M33,35.4c-1.5,0-2.7,1.2-2.7,2.7c0,1.5,1.2,2.7,2.7,2.7s2.7-1.2,2.7-2.7
			C35.7,36.6,34.5,35.4,33,35.4z M39.2,21.4c-0.8-0.4-1.7,0-2,0.7l-3.8,8.7H16.3L8.4,13c-0.1-0.1-0.2-0.3-0.3-0.4
			c-0.3-0.5-0.8-0.8-1.3-0.8H2.3c-0.8,0-1.5,0.7-1.5,1.5c0,0.8,0.7,1.5,1.5,1.5h3.6l7.7,17.3c0,0,0,0.1,0.1,0.1c0,0,0,0,0,0
			c0,0.8,0.7,1.5,1.5,1.5h19c0.2,0,0.3,0,0.4-0.1c0.5-0.1,0.9-0.4,1.2-0.9l4.1-9.5C40.2,22.7,39.9,21.8,39.2,21.4z"/>
	</g>
</g>
<g>
	<g>
		<path class="st0" d="M21.4,16.7h2v8.2c0,0.1,0,0.2,0,0.3c0.2,0.1,1.9,1.6,2.9-0.3v-8.2h1c1.2,0,1.9-1.3,1.3-2.4l-3-5.3
			c-0.6-1.1-2.1-1.1-2.7,0l-3,5.3C19.4,15.4,20.2,16.7,21.4,16.7z"/>
	</g>
</g>
</svg>
