<?xml version="1.0" encoding="utf-8"?>
<!-- Generator: Adobe Illustrator 21.0.0, SVG Export Plug-In . SVG Version: 6.00 Build 0)  -->
<svg version="1.1" xmlns="http://www.w3.org/2000/svg" xmlns:xlink="http://www.w3.org/1999/xlink" x="0px" y="0px" width="28px"
	 height="28px" viewBox="0 0 28 28" style="enable-background:new 0 0 28 28;" xml:space="preserve">
<style type="text/css">
	.st0{fill-rule:evenodd;clip-rule:evenodd;fill:#EFE48D;}
	.st1{fill-rule:evenodd;clip-rule:evenodd;fill:#D8B86F;}
	.st2{fill-rule:evenodd;clip-rule:evenodd;fill:#C14948;}
</style>
<g id="图层_1">
	<g id="图层_2">
		<polygon class="st0" points="4.6,7.1 3.1,8.2 3.1,22.2 4.8,23.1 23.5,22.7 23.8,20.8 23.8,7.6 22.2,6.8 		"/>
	</g>
	<g id="Mail_1_">
		<g>
			<path class="st1" d="M22.3,6.1H4.7c-1.4,0-2.6,1.2-2.6,2.6v13c0,1.4,1.2,2.6,2.6,2.6h17.6c1.4,0,2.6-1.2,2.6-2.6v-13
				C24.9,7.2,23.8,6.1,22.3,6.1z M23.1,21.7c0,0.4-0.4,0.8-0.8,0.8H4.7c-0.4,0-0.8-0.4-0.8-0.8v-13c0-0.4,0.4-0.8,0.8-0.8h17.6
				c0.4,0,0.8,0.4,0.8,0.8V21.7z M17.4,15l4.2-4.2c0.4-0.4,0.4-0.9,0-1.3c-0.4-0.4-0.9-0.4-1.3,0l-6.7,6.7L7,9.7
				C6.6,9.3,6,9.3,5.7,9.7c-0.4,0.4-0.4,0.9,0,1.3l4.2,4.1l-4.1,4.1c-0.4,0.4-0.4,0.9,0,1.3c0.2,0.2,0.4,0.3,0.6,0.3
				s0.5-0.1,0.6-0.3l4.1-4.1l1.8,1.8c0.2,0.2,0.4,0.3,0.6,0.3s0.5-0.1,0.6-0.3l1.9-1.9l4.2,4.2c0.2,0.2,0.4,0.3,0.6,0.3
				c0.2,0,0.5-0.1,0.6-0.3c0.4-0.4,0.4-0.9,0-1.3L17.4,15z"/>
		</g>
	</g>
	<g id="图层_4">
		<circle class="st2" cx="24.1" cy="6.8" r="3.9"/>
	</g>
</g>
<g id="图层_3">
</g>
</svg>
