<?xml version="1.0" encoding="utf-8"?>
<!-- Generator: Adobe Illustrator 21.0.0, SVG Export Plug-In . SVG Version: 6.00 Build 0)  -->
<svg version="1.1" id="图层_2" xmlns="http://www.w3.org/2000/svg" xmlns:xlink="http://www.w3.org/1999/xlink" x="0px" y="0px"
	 width="20px" height="20px" viewBox="0 0 20 20" style="enable-background:new 0 0 20 20;" xml:space="preserve">
<style type="text/css">
	.st0{fill-rule:evenodd;clip-rule:evenodd;fill:#FFFFFF;}
</style>
<g id="Repost">
	<g>
		<path class="st0" d="M12.9,16l-3.5-2c-0.7-0.4-1.6,0.1-1.6,0.9v1H3.1V3.1c0-0.5-0.4-1-1-1s-1,0.4-1,1v13c0,1,0.8,1.8,1.8,1.8h4.8
			v1c0,0.8,0.9,1.3,1.6,0.9l3.5-2C13.6,17.4,13.6,16.4,12.9,16z M17.1,2.1h-4.7v-1c0-0.8-0.9-1.3-1.6-0.9l-3.5,2
			C6.6,2.6,6.6,3.6,7.3,4l3.5,2c0.7,0.4,1.6-0.1,1.6-0.9v-1h4.5v12.8c0,0.5,0.4,1,1,1s1-0.4,1-1v-13C18.9,2.9,18.1,2.1,17.1,2.1z"/>
	</g>
</g>
</svg>
