<?xml version="1.0" encoding="utf-8"?>
<!-- Generator: Adobe Illustrator 21.0.0, SVG Export Plug-In . SVG Version: 6.00 Build 0)  -->
<svg version="1.1" id="图层_2" xmlns="http://www.w3.org/2000/svg" xmlns:xlink="http://www.w3.org/1999/xlink" x="0px" y="0px"
	 width="20px" height="20px" viewBox="0 0 20 20" style="enable-background:new 0 0 20 20;" xml:space="preserve">
<style type="text/css">
	.st0{fill-rule:evenodd;clip-rule:evenodd;fill:#FFFFFF;}
</style>
<path class="st0" d="M10,0C4.5,0,0,4.5,0,10c0,5.5,4.5,10,10,10s10-4.5,10-10C20,4.5,15.5,0,10,0z M11.9,15.2l-2.3,1.4
	c-0.5,0.3-1.1-0.1-1.1-0.6v-0.7H5.3c-0.7,0-1.2-0.5-1.2-1.2V5.4c0-0.4,0.3-0.7,0.7-0.7S5.4,5,5.4,5.4V14h3.1v-0.7
	c0-0.5,0.6-0.9,1.1-0.6l2.3,1.4C12.4,14.3,12.4,15,11.9,15.2z M15.9,14.6c0,0.4-0.3,0.7-0.7,0.7c-0.4,0-0.7-0.3-0.7-0.7V6h-3v0.7
	c0,0.5-0.6,0.9-1.1,0.6L8.2,6C7.7,5.7,7.7,5,8.2,4.8l2.3-1.4C11,3.1,11.6,3.5,11.6,4v0.7h3.1c0.7,0,1.2,0.5,1.2,1.2V14.6z"/>
</svg>
