<?xml version="1.0" encoding="utf-8"?>
<!-- Generator: Adobe Illustrator 21.0.0, SVG Export Plug-In . SVG Version: 6.00 Build 0)  -->
<svg version="1.1" id="图层_2" xmlns="http://www.w3.org/2000/svg" xmlns:xlink="http://www.w3.org/1999/xlink" x="0px" y="0px"
	 width="20px" height="20px" viewBox="0 0 20 20" style="enable-background:new 0 0 20 20;" xml:space="preserve">
<style type="text/css">
	.st0{fill-rule:evenodd;clip-rule:evenodd;fill:#FFFFFF;}
</style>
<g id="Home_1_">
	<g>
		<path class="st0" d="M19.7,9.7l-8.3-9.3c-0.5-0.5-1.4-0.6-2,0l-9,9.3C0,10-0.1,10.6,0.1,11.1c0.2,0.5,0.7,0.8,1.2,0.8h1.4v6.8
			c0,0.7,0.6,1.3,1.3,1.3h12.2c0.7,0,1.3-0.6,1.3-1.3v-6.8h1.1c0.5,0,1-0.3,1.2-0.8C20.1,10.6,20,10.1,19.7,9.7z M17.4,10.4
			c-0.7,0-1.3,0.6-1.3,1.3v6.8H4.2v-6.8c0-0.7-0.6-1.3-1.3-1.3H1.7l8.6-8.9l8,8.9H17.4z"/>
	</g>
</g>
</svg>
