<?xml version="1.0" encoding="utf-8"?>
<!-- Generator: Adobe Illustrator 21.0.0, SVG Export Plug-In . SVG Version: 6.00 Build 0)  -->
<svg version="1.1" xmlns="http://www.w3.org/2000/svg" xmlns:xlink="http://www.w3.org/1999/xlink" x="0px" y="0px" width="20px"
	 height="20px" viewBox="0 0 20 20" style="enable-background:new 0 0 20 20;" xml:space="preserve">
<style type="text/css">
	.st0{fill:#FFFFFF;}
</style>
<g id="图层_2">
</g>
<g id="图层_3">
	<path class="st0" d="M19.3,18.6l-0.2-0.2c-0.6-0.7-0.6-1.6,0-2.3l0.2-0.3c0.1-0.1,0.1-0.1,0.1-0.2c0,0,0,0,0-0.1c0-0.1,0-0.1,0-0.2
		c0,0,0,0,0,0V3.5C19.6,1.6,18,0,16.1,0H6.5H5H3.6C1.8,0,0.4,1.4,0.4,3.2v14.1c0,1.5,1.2,2.7,2.7,2.7h15.8c0,0,0,0,0,0
		c0.4,0,0.8-0.3,0.8-0.8C19.6,19,19.5,18.8,19.3,18.6z M10,1.5h2.3h2.3v5.7c0,0,0,0.3-0.2,0.4c-0.4,0.2-0.5-0.1-0.5-0.1l-1.3-1.4
		c0,0-0.1-0.1-0.3-0.1S12,6.2,12,6.2l-1.3,1.4c0,0-0.2,0.2-0.5,0.1C10,7.5,10,7.2,10,7.2V1.5z M4.1,1.5h3.6v13.7H4.1V1.5z
		 M17.4,18.5H3.1c-0.6,0-1.1-0.5-1.1-1.2c0-0.6,0.5-1.1,1.1-1.1h14.3C17.1,16.9,17.1,17.7,17.4,18.5z"/>
</g>
</svg>
