<?xml version="1.0" encoding="utf-8"?>
<!-- Generator: Adobe Illustrator 21.0.0, SVG Export Plug-In . SVG Version: 6.00 Build 0)  -->
<svg version="1.1" id="图层_3" xmlns="http://www.w3.org/2000/svg" xmlns:xlink="http://www.w3.org/1999/xlink" x="0px" y="0px"
	 width="20px" height="20px" viewBox="0 0 20 20" style="enable-background:new 0 0 20 20;" xml:space="preserve">
<style type="text/css">
	.st0{fill:#FFFFFF;}
</style>
<path class="st0" d="M10,0.1C4.5,0.1,0,4.5,0,10s4.5,9.9,10,9.9c5.5,0,10-4.4,10-9.9S15.5,0.1,10,0.1z M14.6,13.9H5.4
	c-0.4,0-0.8-0.3-0.8-0.8s0.3-0.8,0.8-0.8h9.2c0.4,0,0.8,0.3,0.8,0.8S15,13.9,14.6,13.9z M14.6,10.8H5.4c-0.4,0-0.8-0.3-0.8-0.8
	c0-0.4,0.3-0.8,0.8-0.8h9.2c0.4,0,0.8,0.3,0.8,0.8C15.4,10.5,15,10.8,14.6,10.8z M14.6,7.8H5.4C5,7.8,4.6,7.4,4.6,7S5,6.2,5.4,6.2
	h9.2c0.4,0,0.8,0.3,0.8,0.8S15,7.8,14.6,7.8z"/>
</svg>
