<?xml version="1.0" encoding="utf-8"?>
<!-- Generator: Adobe Illustrator 21.0.0, SVG Export Plug-In . SVG Version: 6.00 Build 0)  -->
<svg version="1.1" id="图层_3" xmlns="http://www.w3.org/2000/svg" xmlns:xlink="http://www.w3.org/1999/xlink" x="0px" y="0px"
	 width="20px" height="20px" viewBox="0 0 20 20" style="enable-background:new 0 0 20 20;" xml:space="preserve">
<style type="text/css">
	.st0{fill-rule:evenodd;clip-rule:evenodd;fill:#FFFFFF;}
</style>
<g id="Grid_1_">
	<g>
		<path class="st0" d="M7.5,0.1H1.2C0.6,0.1,0,0.6,0,1.3v6.2c0,0.7,0.6,1.2,1.2,1.2h6.2c0.7,0,1.2-0.5,1.2-1.2V1.3
			C8.7,0.6,8.2,0.1,7.5,0.1z M18.8,0.1h-6.2c-0.7,0-1.2,0.5-1.2,1.2v6.2c0,0.7,0.6,1.2,1.2,1.2h6.2c0.7,0,1.2-0.5,1.2-1.2V1.3
			C20,0.6,19.5,0.1,18.8,0.1z M7.5,11.3H1.2c-0.7,0-1.2,0.5-1.2,1.2v6.2C0,19.4,0.6,20,1.2,20h6.2c0.7,0,1.2-0.5,1.2-1.2v-6.2
			C8.7,11.9,8.2,11.3,7.5,11.3z M18.8,11.3h-6.2c-0.7,0-1.2,0.5-1.2,1.2v6.2c0,0.7,0.6,1.2,1.2,1.2h6.2c0.7,0,1.2-0.5,1.2-1.2v-6.2
			C20,11.9,19.5,11.3,18.8,11.3z"/>
	</g>
</g>
</svg>
