<?xml version="1.0" encoding="utf-8"?>
<!-- Generator: Adobe Illustrator 21.0.0, SVG Export Plug-In . SVG Version: 6.00 Build 0)  -->
<svg version="1.1" id="图层_1" xmlns="http://www.w3.org/2000/svg" xmlns:xlink="http://www.w3.org/1999/xlink" x="0px" y="0px"
	 width="17px" height="17px" viewBox="0 0 17 17" style="enable-background:new 0 0 17 17;" xml:space="preserve">
<style type="text/css">
	.st0{fill-rule:evenodd;clip-rule:evenodd;fill:#EFE48D;}
	.st1{fill-rule:evenodd;clip-rule:evenodd;fill:#D7B46B;}
</style>
<g id="图层_2">
	<path class="st0" d="M1.7,2.7l-1,1.2l0.2,10.3l1.1,0.7l14-0.1c0,0,0.3-1.2,0.3-1.3c0-0.1,0-9.9,0-9.9l-0.7-0.6L1.7,2.7z"/>
</g>
<g id="Mail_1_">
	<g>
		<path class="st1" d="M15,2.1H2C0.9,2.1,0,3,0,4v9.7c0,1.1,0.9,2,2,2H15c1.1,0,2-0.9,2-2V4C17,3,16.1,2.1,15,2.1z M15.6,13.7
			c0,0.3-0.3,0.6-0.6,0.6H2c-0.3,0-0.6-0.3-0.6-0.6V4c0-0.3,0.3-0.6,0.6-0.6H15c0.3,0,0.6,0.3,0.6,0.6V13.7z M11.3,8.8l3.1-3.1
			c0.3-0.3,0.3-0.7,0-1c-0.3-0.3-0.7-0.3-1,0l-5,5L3.6,4.8c-0.3-0.3-0.7-0.3-1,0c-0.3,0.3-0.3,0.7,0,1l3.1,3.1l-3,3
			c-0.3,0.3-0.3,0.7,0,1C2.8,13,3,13,3.2,13c0.2,0,0.3-0.1,0.5-0.2l3-3L8,11.1c0.1,0.1,0.3,0.2,0.5,0.2s0.3-0.1,0.5-0.2l1.4-1.4
			l3.1,3.1C13.6,13,13.8,13,14,13c0.2,0,0.3-0.1,0.5-0.2c0.3-0.3,0.3-0.7,0-1L11.3,8.8z"/>
	</g>
</g>
</svg>
