<?xml version="1.0" encoding="utf-8"?>
<!-- Generator: Adobe Illustrator 21.0.0, SVG Export Plug-In . SVG Version: 6.00 Build 0)  -->
<svg version="1.1" xmlns="http://www.w3.org/2000/svg" xmlns:xlink="http://www.w3.org/1999/xlink" x="0px" y="0px" width="17px"
	 height="17px" viewBox="0 0 17 17" style="enable-background:new 0 0 17 17;" xml:space="preserve">
<style type="text/css">
	.st0{fill-rule:evenodd;clip-rule:evenodd;fill:#B3B2B3;}
</style>
<g id="图层_1">
	<g id="Mail_1_">
		<g>
			<path class="st0" d="M15,3.4H2c-1.1,0-2,0.9-2,2V15c0,1.1,0.9,2,2,2H15c1.1,0,2-0.9,2-2V5.4C17,4.3,16.1,3.4,15,3.4z M15.6,15
				c0,0.3-0.3,0.6-0.6,0.6H2c-0.3,0-0.6-0.3-0.6-0.6V5.4c0-0.3,0.3-0.6,0.6-0.6H15c0.3,0,0.6,0.3,0.6,0.6V15z M14.5,6
				c-0.1-0.1-0.3-0.2-0.5-0.2c-0.2,0-0.3,0.1-0.5,0.2l-3.1,3.1L9,7.8C8.8,7.6,8.7,7.6,8.5,7.6S8.2,7.6,8,7.8L6.7,9.1l-3-3
				C3.5,5.9,3.4,5.8,3.2,5.8C3,5.8,2.8,5.9,2.7,6c-0.3,0.3-0.3,0.7,0,1l3,3l-3.1,3.1c-0.3,0.3-0.3,0.7,0,1c0.3,0.3,0.7,0.3,1,0
				l4.9-4.9l5,5c0.3,0.3,0.7,0.3,1,0c0.3-0.3,0.3-0.7,0-1l-3.1-3.1L14.5,7C14.7,6.7,14.7,6.3,14.5,6z"/>
		</g>
	</g>
</g>
<g id="图层_3">
</g>
<g id="图层_4">
	<g>
		<polygon class="st0" points="0.5,4 5.1,0 8.4,0 8.4,1.2 5.7,1.2 1.8,4.8 		"/>
		<polygon class="st0" points="16.4,4 11.8,0 7.6,0 7.6,1.2 11.2,1.2 15,4.8 		"/>
	</g>
</g>
</svg>
