<?xml version="1.0" encoding="utf-8"?>
<!-- Generator: Adobe Illustrator 21.0.0, SVG Export Plug-In . SVG Version: 6.00 Build 0)  -->
<svg version="1.1" id="图层_3" xmlns="http://www.w3.org/2000/svg" xmlns:xlink="http://www.w3.org/1999/xlink" x="0px" y="0px"
	 width="20px" height="20px" viewBox="0 0 20 20" style="enable-background:new 0 0 20 20;" xml:space="preserve">
<style type="text/css">
	.st0{fill-rule:evenodd;clip-rule:evenodd;fill:#FFFFFF;}
</style>
<g id="Settings_1_">
	<g>
		<path class="st0" d="M10.1,5.5c-2.6,0-4.8,2.2-4.8,4.8c0,2.7,2.2,4.8,4.8,4.8c2.6,0,4.8-2.2,4.8-4.8C14.9,7.7,12.7,5.5,10.1,5.5z
			 M10.1,13.5c-1.8,0-3.2-1.4-3.2-3.2c0-1.8,1.4-3.2,3.2-3.2c1.8,0,3.2,1.4,3.2,3.2C13.3,12.1,11.9,13.5,10.1,13.5z M19.8,9.5
			c-0.2-0.1-0.4-0.2-0.6-0.2l-0.5,0c-0.1-0.8-0.3-1.5-0.5-2.3l0.5-0.2C18.8,6.7,19,6.5,19,6.3c0.1-0.2,0.1-0.4,0-0.6
			c-0.7-1.3-1.6-2.5-2.8-3.5c-0.2-0.1-0.4-0.2-0.6-0.2c-0.2,0-0.4,0.1-0.5,0.3l-0.3,0.4c-0.6-0.4-1.4-0.8-2.1-1l0.1-0.5
			c0.1-0.4-0.2-0.9-0.6-1c-1.4-0.3-3-0.3-4.4,0c-0.2,0-0.4,0.2-0.5,0.4C7.1,0.9,7.1,1.1,7.1,1.3l0.1,0.5C6.5,2,5.8,2.4,5.2,2.8
			L4.9,2.4C4.6,2.1,4.1,2,3.7,2.3C2.6,3.2,1.6,4.4,1,5.8C0.9,6,0.9,6.2,0.9,6.4C1,6.6,1.2,6.8,1.4,6.9l0.5,0.2
			C1.5,7.8,1.4,8.6,1.3,9.3l-0.5,0c-0.2,0-0.4,0.1-0.6,0.2C0.1,9.7,0,9.9,0,10.1c0,1.5,0.3,3,1,4.3c0.2,0.4,0.7,0.6,1.1,0.4l0.5-0.2
			c0.4,0.7,0.9,1.3,1.4,1.8l-0.3,0.4c-0.1,0.2-0.2,0.4-0.2,0.6c0,0.2,0.1,0.4,0.3,0.5c1.2,0.9,2.6,1.6,4,1.9c0.1,0,0.1,0,0.2,0
			c0.1,0,0.3,0,0.4-0.1c0.2-0.1,0.3-0.3,0.4-0.5l0.1-0.5c0.8,0.1,1.5,0.1,2.3,0l0.1,0.5c0.1,0.4,0.5,0.7,1,0.6c1.5-0.3,2.8-1,4-1.9
			c0.3-0.3,0.4-0.8,0.1-1.1l-0.3-0.4c0.6-0.5,1-1.1,1.4-1.8l0.5,0.2c0.2,0.1,0.4,0.1,0.6,0c0.2-0.1,0.4-0.2,0.5-0.4
			c0.7-1.4,1-2.8,1-4.4C20,9.9,19.9,9.7,19.8,9.5z M17.9,13l-0.4-0.2c-0.4-0.2-0.9,0-1.1,0.4c-0.5,1-1.1,1.8-2,2.5
			c-0.3,0.3-0.4,0.8-0.1,1.1l0.3,0.3c-0.6,0.4-1.3,0.7-1.9,0.9l-0.1-0.4c0-0.2-0.2-0.4-0.4-0.5c-0.2-0.1-0.4-0.1-0.6-0.1
			c-1.1,0.2-2.1,0.2-3.2,0c-0.2,0-0.4,0-0.6,0.1c-0.2,0.1-0.3,0.3-0.4,0.5l-0.1,0.4c-0.7-0.2-1.3-0.5-1.9-0.9l0.3-0.3
			c0.1-0.2,0.2-0.4,0.2-0.6c0-0.2-0.1-0.4-0.3-0.5c-0.8-0.7-1.5-1.5-2-2.5c-0.1-0.2-0.3-0.3-0.5-0.4c-0.2-0.1-0.4-0.1-0.6,0L2.1,13
			c-0.3-0.7-0.4-1.4-0.5-2.1l0.4,0c0.4,0,0.8-0.4,0.8-0.8C2.9,9,3.1,8,3.6,7c0.2-0.4,0-0.9-0.4-1.1L2.8,5.8c0.4-0.6,0.8-1.2,1.3-1.7
			l0.3,0.3c0.3,0.3,0.8,0.4,1.1,0.1c0.8-0.7,1.8-1.1,2.9-1.4c0.2,0,0.4-0.2,0.5-0.4C9,2.6,9,2.4,9,2.2L8.9,1.8
			c0.7-0.1,1.4-0.1,2.2,0L11,2.2c-0.1,0.4,0.2,0.9,0.6,1c1.1,0.2,2,0.7,2.9,1.4c0.3,0.3,0.8,0.2,1.1-0.1L15.8,4
			c0.5,0.5,1,1.1,1.4,1.7l-0.4,0.2c-0.4,0.2-0.6,0.7-0.4,1.1c0.5,1,0.7,2,0.7,3.1c0,0.2,0.1,0.4,0.2,0.6c0.2,0.1,0.4,0.2,0.6,0.2
			l0.4,0C18.3,11.6,18.1,12.3,17.9,13z"/>
	</g>
</g>
</svg>
