<?xml version="1.0" encoding="utf-8"?>
<!-- Generator: Adobe Illustrator 21.0.0, SVG Export Plug-In . SVG Version: 6.00 Build 0)  -->
<svg version="1.1" id="图层_3" xmlns="http://www.w3.org/2000/svg" xmlns:xlink="http://www.w3.org/1999/xlink" x="0px" y="0px"
	 width="20px" height="20px" viewBox="0 0 20 20" style="enable-background:new 0 0 20 20;" xml:space="preserve">
<style type="text/css">
	.st0{fill-rule:evenodd;clip-rule:evenodd;fill:#FFFFFF;}
</style>
<g id="Profile_x5F_4_1_">
	<g>
		<path class="st0" d="M10,0.1C4.5,0.1,0,4.5,0,10c0,2.8,1.2,5.4,3.1,7.2c0,0,0,0,0,0c0,0,0,0,0.1,0c1.8,1.7,4.2,2.7,6.8,2.7
			c2.7,0,5.2-1.1,7-2.9c0,0,0,0,0,0c0,0,0,0,0,0c1.8-1.8,3-4.3,3-7C20,4.5,15.5,0.1,10,0.1z M10,18.6c-2,0-3.9-0.7-5.3-1.8
			c0.3-0.2,0.6-0.3,0.9-0.3c0.3,0,0.8-0.1,1.2-0.3c0.2,0,0.4-0.1,0.5-0.1c1-0.2,1.3-0.4,1.5-0.6C8.9,15.4,9,15.2,9,15
			c0-0.4-0.2-0.9-0.4-1.2c0-0.1-0.1-0.1-0.2-0.2C7.5,12.9,7,11.7,7,10.4c0-2.1,1.4-3.7,3-3.7c1.7,0,3,1.7,3,3.7
			c0,1.3-0.5,2.5-1.4,3.2c0,0-0.1,0.1-0.1,0.1C11.2,14.1,11,14.5,11,15c0,0.2,0.1,0.4,0.2,0.5c0.1,0.1,0.4,0.3,1.5,0.5
			c0.6,0.1,1.3,0.3,1.8,0.3c0.3,0,0.7,0.1,1,0.3C14,17.9,12.1,18.6,10,18.6z"/>
	</g>
</g>
</svg>
