<?xml version="1.0" encoding="utf-8"?>
<!-- Generator: Adobe Illustrator 21.0.0, SVG Export Plug-In . SVG Version: 6.00 Build 0)  -->
<svg version="1.1" xmlns="http://www.w3.org/2000/svg" xmlns:xlink="http://www.w3.org/1999/xlink" x="0px" y="0px" width="46px"
	 height="46px" viewBox="0 0 46 46" style="enable-background:new 0 0 46 46;" xml:space="preserve">
<style type="text/css">
	.st0{display:none;}
	.st1{fill:#27A59A;}
	.st2{fill-rule:evenodd;clip-rule:evenodd;fill:#27A59A;}
</style>
<g id="图层_1" class="st0">
</g>
<g id="图层_2">
	<path class="st1" d="M0,0v46h46V0H0z M43.9,43.9H2.1V2h41.9V43.9z"/>
	<g id="Money">
		<g>
			<path class="st2" d="M23,27.2c7.3,0,13-3.5,13-8c0-4.5-5.7-8-13-8c-7.3,0-13,3.5-13,8C10,23.7,15.7,27.2,23,27.2z M23,13.2
				c6,0,11,2.7,11,6c0,3.3-5,6-11,6c-6,0-11-2.7-11-6C12,15.9,17,13.2,23,13.2z M34.8,24.7c-0.5-0.3-1.1-0.2-1.4,0.3
				c-1.6,2.5-5.7,4.1-10.4,4.1c-4.7,0-8.9-1.7-10.4-4.1c-0.3-0.5-0.9-0.6-1.4-0.3c-0.5,0.3-0.6,0.9-0.3,1.4
				c1.9,3.1,6.7,5.1,12.1,5.1c5.4,0,10.2-2,12.1-5.1C35.4,25.6,35.3,25,34.8,24.7z M34.8,29.1c-0.5-0.3-1.1-0.2-1.4,0.3
				c-1.6,2.5-5.7,4.1-10.4,4.1c-4.7,0-8.9-1.7-10.4-4.1c-0.3-0.5-0.9-0.6-1.4-0.3c-0.5,0.3-0.6,0.9-0.3,1.4
				c1.9,3.1,6.7,5.1,12.1,5.1c5.4,0,10.2-2,12.1-5.1C35.4,30,35.3,29.4,34.8,29.1z"/>
		</g>
	</g>
</g>
</svg>
