<?xml version="1.0" encoding="utf-8"?>
<!-- Generator: Adobe Illustrator 21.0.0, SVG Export Plug-In . SVG Version: 6.00 Build 0)  -->
<svg version="1.1" xmlns="http://www.w3.org/2000/svg" xmlns:xlink="http://www.w3.org/1999/xlink" x="0px" y="0px" width="46px"
	 height="46px" viewBox="0 0 46 46" style="enable-background:new 0 0 46 46;" xml:space="preserve">
<style type="text/css">
	.st0{display:none;}
	.st1{fill:#27A59A;}
	.st2{fill-rule:evenodd;clip-rule:evenodd;fill:#27A59A;}
</style>
<g id="图层_1" class="st0">
</g>
<g id="图层_2">
	<path class="st1" d="M0,0v46h46V0H0z M43.9,43.9H2.1V2h41.9V43.9z"/>
	<g id="Featured_1_">
		<g>
			<path class="st2" d="M28.1,18.4C28.1,18.4,28.1,18.4,28.1,18.4l-3.2,0l-1-3c-0.1-0.3-0.4-0.5-0.6-0.5c-0.3,0-0.6,0.2-0.6,0.5
				l-1,3l-3.2,0h0c-0.3,0-0.6,0.2-0.6,0.5c-0.1,0.3,0,0.6,0.2,0.7l2.6,1.9l-1,3c-0.1,0.3,0,0.6,0.2,0.7c0.1,0.1,0.3,0.1,0.4,0.1
				c0.1,0,0.3,0,0.4-0.1l2.6-1.9l2.6,1.9c0.1,0.1,0.3,0.1,0.4,0.1c0.1,0,0.3,0,0.4-0.1c0.2-0.2,0.3-0.5,0.2-0.7l-1-3l2.6-1.9
				c0.2-0.2,0.3-0.5,0.2-0.7C28.6,18.6,28.4,18.4,28.1,18.4z M23.2,10.3c-5.9,0-10.7,4.7-10.7,10.5c0,3.8,2,7.2,5.3,9.1v6.6
				c0,0.4,0.2,0.7,0.5,0.8c0.3,0.2,0.7,0.1,1-0.1l3.9-3l3.9,3c0.2,0.1,0.4,0.2,0.6,0.2c0.1,0,0.3,0,0.4-0.1c0.3-0.2,0.5-0.5,0.5-0.8
				v-6.7c3.2-1.9,5.2-5.3,5.2-9C33.9,15,29.1,10.3,23.2,10.3z M27.3,28.5c-0.2,0.1-0.4,0.4-0.5,0.6c0,0.1,0,0.2,0,0.2v5.3l-3-2.3
				c-0.2-0.1-0.4-0.2-0.6-0.2c-0.2,0-0.4,0.1-0.6,0.2l-3,2.3v-5.3c0-0.3-0.2-0.7-0.5-0.8c-3-1.5-4.8-4.5-4.8-7.7
				c0-4.8,3.9-8.7,8.8-8.7c4.9,0,8.8,3.9,8.8,8.7C32,24,30.2,27,27.3,28.5z"/>
		</g>
	</g>
</g>
</svg>
