<?xml version="1.0" encoding="utf-8"?>
<!-- Generator: Adobe Illustrator 21.0.0, SVG Export Plug-In . SVG Version: 6.00 Build 0)  -->
<svg version="1.1" xmlns="http://www.w3.org/2000/svg" xmlns:xlink="http://www.w3.org/1999/xlink" x="0px" y="0px" width="46px"
	 height="46px" viewBox="0 0 46 46" style="enable-background:new 0 0 46 46;" xml:space="preserve">
<style type="text/css">
	.st0{display:none;}
	.st1{fill:#27A59A;}
	.st2{fill-rule:evenodd;clip-rule:evenodd;fill:#27A59A;}
</style>
<g id="图层_1" class="st0">
</g>
<g id="图层_2">
	<path class="st1" d="M0,0v46h46V0H0z M43.9,43.9H2.1V2h41.9V43.9z"/>
	<g id="Book">
		<g>
			<path class="st2" d="M34.4,33.9l-0.2-0.2c-0.7-0.8-0.7-2,0-2.8l0.3-0.3c0.1-0.1,0.1-0.2,0.2-0.2c0,0,0,0,0-0.1
				c0-0.1,0-0.2,0.1-0.3c0,0,0,0,0,0V15.4c0-2.3-1.9-4.2-4.2-4.2H18.8h-1.9h-1.7c-2.1,0-3.9,1.7-3.9,3.9v17.2c0,1.8,1.5,3.3,3.3,3.3
				h19.2c0,0,0,0,0,0c0.5,0,0.9-0.4,0.9-0.9C34.7,34.3,34.6,34,34.4,33.9z M13.2,15.1c0-1.1,0.9-2,2-2H16V29h-1.4
				c-0.5,0-1,0.1-1.4,0.3V15.1z M32,33.7H14.5c-0.8,0-1.4-0.6-1.4-1.4c0-0.8,0.6-1.4,1.4-1.4H32C31.7,31.8,31.7,32.8,32,33.7z
				 M32.8,29H19.7V13.1H23V20c0,0.5,0.6,0.7,0.9,0.4l1.5-1.7c0.2-0.2,0.5-0.2,0.7,0l1.5,1.7c0.3,0.4,0.9,0.1,0.9-0.4v-6.9h1.8
				c1.3,0,2.4,1.1,2.4,2.4V29z"/>
		</g>
	</g>
</g>
</svg>
