<?xml version="1.0" encoding="utf-8"?>
<!-- Generator: Adobe Illustrator 21.0.0, SVG Export Plug-In . SVG Version: 6.00 Build 0)  -->
<svg version="1.1" id="图层_1" xmlns="http://www.w3.org/2000/svg" xmlns:xlink="http://www.w3.org/1999/xlink" x="0px" y="0px"
	 width="189px" height="189px" viewBox="0 0 189 189" style="enable-background:new 0 0 189 189;" xml:space="preserve">
<style type="text/css">
	.st0{fill:#DB4545;}
</style>
<g>
	<path class="st0" d="M189,94.7c-0.1,52.2-42.6,94.5-94.8,94.3C42.1,188.9-0.1,146.5,0,94.3C0.1,42.1,42.6-0.2,94.8,0
		C146.9,0.2,189.1,42.5,189,94.7z M180,94.4c0-47.2-38.2-85.3-85.6-85.4C47.4,9,9,47.4,9,94.6c0,47.1,38.3,85.4,85.4,85.4
		C141.7,180,180,141.7,180,94.4z"/>
	<path class="st0" d="M145.7,75.5c0,3.3-1.1,6.2-3.4,8.6c-6.8,6.9-13.7,13.8-20.6,20.6c-4.7,4.5-12,4.6-16.6,0.3
		c-1.9-1.8-2.2-4.3-0.7-6c1.5-1.7,3.8-1.8,5.9-0.3c2.5,1.8,4.2,1.7,6.4-0.4c6.5-6.4,12.9-12.9,19.3-19.4c2.2-2.2,2.2-4.3,0-6.5
		c-6.6-6.7-13.3-13.4-20-20c-2-2-4.4-2-6.4,0C103,58.9,96.5,65.4,90,72c-1.9,1.9-2,3.8-0.3,6.1c1.7,2.4,1.5,4.6-0.5,6.2
		c-1.9,1.4-4.1,1-6-1.1c-4-4.5-4-11.7,0.2-16.1c6.9-7.2,13.9-14.2,21.1-21.1c4.5-4.4,12.1-4.3,16.7,0.1c7.2,7,14.2,14.1,21.3,21.3
		C144.7,69.5,145.7,72.3,145.7,75.5z"/>
	<path class="st0" d="M73.7,81.8c3.3,0.1,6.2,1,8.5,3.3c1.8,1.7,1.9,3.9,0.5,5.7c-1.4,1.7-3.6,1.9-5.7,0.6c-3.1-2.1-4.4-2-7.1,0.7
		c-6.2,6.2-12.4,12.4-18.5,18.5c-2.7,2.7-2.7,4.7,0,7.3c6.4,6.4,12.8,12.8,19.2,19.2c2.5,2.5,4.7,2.5,7.2,0
		c6.3-6.3,12.6-12.6,18.8-18.9c2.4-2.4,2.5-3.9,0.5-6.7c-1.5-2.1-1.3-4.4,0.5-5.9c1.7-1.4,4.1-1.1,5.9,0.7
		c4.2,4.4,4.4,11.8,0.1,16.3c-7,7.3-14.1,14.4-21.4,21.4c-4.5,4.3-11.7,4.3-16.2-0.1c-7.3-7.1-14.5-14.3-21.6-21.6
		c-4.4-4.6-4.4-11.8,0-16.4c6.9-7.2,14-14.1,21.1-21.1C67.8,82.7,70.7,81.9,73.7,81.8z"/>
	<path class="st0" d="M70,122.4c-3.8,0.1-5.9-3.2-4.5-5.9c0.3-0.7,0.9-1.2,1.4-1.8c14.9-15,29.9-30,44.9-44.9c0.5-0.5,1-1,1.5-1.3
		c1.8-1.1,3.5-0.8,5,0.6c1.5,1.4,1.6,3.2,0.6,5c-0.4,0.6-0.9,1.2-1.5,1.7c-14.8,14.8-29.6,29.6-44.4,44.4
		C72,121.2,70.7,122,70,122.4z"/>
</g>
</svg>
