<svg xmlns="http://www.w3.org/2000/svg" width="47" height="47" viewBox="0 0 47 47">
  <metadata><?xpacket begin="﻿" id="W5M0MpCehiHzreSzNTczkc9d"?>
<x:xmpmeta xmlns:x="adobe:ns:meta/" x:xmptk="Adobe XMP Core 5.6-c138 79.159824, 2016/09/14-01:09:01        ">
   <rdf:RDF xmlns:rdf="http://www.w3.org/1999/02/22-rdf-syntax-ns#">
      <rdf:Description rdf:about=""/>
   </rdf:RDF>
</x:xmpmeta>
                                                                                                    
                                                                                                    
                                                                                                    
                                                                                                    
                                                                                                    
                                                                                                    
                                                                                                    
                                                                                                    
                                                                                                    
                                                                                                    
                                                                                                    
                                                                                                    
                                                                                                    
                                                                                                    
                                                                                                    
                                                                                                    
                                                                                                    
                                                                                                    
                                                                                                    
                                                                                                    
                           
<?xpacket end="w"?></metadata>
<defs>
    <style>
      .cls-1 {
        fill: #108ee9;
        fill-rule: evenodd;
      }
    </style>
  </defs>
  <path id="Time" class="cls-1" d="M23.505,46.006C10.545,46.006,0,35.685,0,23S10.545-.009,23.505-0.009,47.008,10.313,47.008,23,36.465,46.006,23.505,46.006Zm0-41.632A18.85,18.85,0,0,0,4.478,23,18.85,18.85,0,0,0,23.505,41.623,18.849,18.849,0,0,0,42.531,23,18.849,18.849,0,0,0,23.505,4.373ZM35.85,28.443H22.42a2.215,2.215,0,0,1-2.238-2.191V10.914a2.239,2.239,0,0,1,4.477,0V24.061H35.85A2.192,2.192,0,1,1,35.85,28.443Z"/>
</svg>
