<?xml version="1.0" encoding="utf-8"?>
<!-- Generator: Adobe Illustrator 21.0.0, SVG Export Plug-In . SVG Version: 6.00 Build 0)  -->
<svg version="1.1" xmlns="http://www.w3.org/2000/svg" xmlns:xlink="http://www.w3.org/1999/xlink" x="0px" y="0px" width="41px"
	 height="34.2px" viewBox="0 0 41 34.2" style="enable-background:new 0 0 41 34.2;" xml:space="preserve">
<style type="text/css">
	.st0{fill-rule:evenodd;clip-rule:evenodd;}
	.st1{fill:#8AC463;}
	.st2{fill:#FFFFFF;}
	.st3{display:none;}
	.st4{display:inline;}
	.st5{clip-path:url(#SVGID_1_);}
	.st7{font-family:'NotoSansHans-Medium-GBpc-EUC-H';}
	.st8{font-size:12.8129px;}
</style>
<g id="图层_1">
	<g id="Profile_x5F_2_1_">
		<g>
			<path class="st0" d="M28.7,6.8L17.9,0.6C17.2,0.2,16.4,0,15.6,0c-0.8,0-1.6,0.2-2.4,0.6L2.4,6.8C0.9,7.6,0,9.2,0,10.9v12.2
				c0,1.7,0.9,3.3,2.4,4.1l10.8,6.1c0.7,0.4,1.5,0.6,2.4,0.6c0.8,0,1.6-0.2,2.4-0.6l10.8-6.1c1.5-0.8,2.4-2.4,2.4-4.1V10.9
				C31.1,9.2,30.2,7.6,28.7,6.8z M16.8,31.3c-0.4,0.2-0.8,0.3-1.2,0.3c-0.4,0-0.8-0.1-1.2-0.3l-7.9-4.5c0.5-0.3,1-0.5,1.5-0.5
				c0.5,0,1.3-0.2,2.1-0.4c0.3-0.1,0.6-0.2,0.9-0.2c1.7-0.4,2.3-0.8,2.6-1c0.3-0.2,0.4-0.5,0.4-0.9c0-0.7-0.3-1.5-0.7-2.1
				c-0.1-0.1-0.2-0.2-0.3-0.3c-1.6-1.2-2.5-3.2-2.5-5.5c0-3.5,2.3-6.4,5.2-6.4c2.9,0,5.2,2.9,5.2,6.4c0,2.2-0.9,4.3-2.5,5.5
				c-0.1,0.1-0.1,0.1-0.2,0.2c-0.5,0.7-0.8,1.4-0.8,2.2c0,0.3,0.1,0.7,0.4,0.9c0.3,0.2,0.8,0.5,2.5,0.9c1.1,0.2,2.3,0.5,3,0.5
				c0.6,0.1,1.3,0.3,1.8,0.6L16.8,31.3z M28.8,23.1c0,0.9-0.5,1.7-1.2,2.1l-0.3,0.2c0,0,0,0,0,0c-1.1-0.9-2.5-1.5-3.8-1.6
				c-0.6-0.1-1.7-0.3-2.7-0.5c-0.4-0.1-0.7-0.2-0.9-0.2c0,0,0,0,0-0.1c2-1.6,3.2-4.3,3.2-7.2c0-4.8-3.4-8.7-7.5-8.7
				c-4.1,0-7.5,3.9-7.5,8.7c0,2.9,1.2,5.5,3.2,7.2c0,0.1,0.1,0.1,0.1,0.2c-0.2,0.1-0.6,0.2-1,0.3c-0.3,0.1-0.6,0.1-0.9,0.2
				C8.8,23.8,8.1,24,7.7,24c-1.1,0.1-2.4,0.7-3.5,1.5l-0.7-0.4c-0.8-0.4-1.2-1.2-1.2-2.1V10.9c0-0.9,0.5-1.7,1.2-2.1l10.8-6.1
				c0.4-0.2,0.8-0.3,1.2-0.3c0.4,0,0.8,0.1,1.2,0.3l10.8,6.1c0.8,0.4,1.2,1.2,1.2,2.1V23.1z"/>
		</g>
	</g>
	<g>
		<g>
			<path id="SVGID_5_" class="st1" d="M28,28.6c0.3-0.3,0.9-0.3,1.2,0l4,4c0.3,0.3,0.3,0.9,0,1.2s-0.9,0.3-1.2,0l-4-4
				C27.7,29.5,27.7,28.9,28,28.6L28,28.6z"/>
		</g>
	</g>
	<g>
		<g>
			<path id="SVGID_7_" class="st1" d="M40.7,24.8c0.4,0.3,0.4,0.8,0,1.2l-7.5,7.8c-0.3,0.3-0.9,0.4-1.2,0c-0.4-0.3-0.4-0.8,0-1.2
				l7.5-7.8C39.8,24.5,40.4,24.5,40.7,24.8L40.7,24.8z"/>
		</g>
	</g>
</g>
<g id="图层_2">
	<path class="st2" d="M25.4,19.7c-0.6-0.2-3.6-11.8-5.8-12.5c-3.7-1.1-8.4,1-11.9,1.7C4.7,9.5,4,23.2,4,23.2c0,0-0.6,1.9-0.6,1.9
		l3.9,2.2l17.6-0.6l2.5-1.4C26.9,25.2,26,19.8,25.4,19.7z"/>
	<g class="st3">
		<g class="st4">
			<defs>
				<path id="SVGID_3_" d="M22.1,24.6H8.9c-0.9,0-1.5-0.9-1.7-1.2c-0.3-0.5-0.3-1.4,0-2.1l0.7-1.6c0.6-1.2,2-1.9,3.1-2
					c0.3,0,0.8-0.1,1.5-0.3c0.2,0,0.3-0.1,0.4-0.1c-1.1-1-1.8-2.5-1.8-4.1c0-2.8,2-5.1,4.4-5.1s4.4,2.3,4.4,5.1
					c0,1.6-0.7,3.1-1.8,4.1c0.1,0,0.2,0.1,0.4,0.1c0.5,0.1,1.2,0.2,1.5,0.3c1.1,0.1,2.5,0.8,3.1,2l0.7,1.5c0.3,0.6,0.4,1.7,0,2.2
					C23.6,23.7,23,24.6,22.1,24.6L22.1,24.6z M14.2,16.5c0.3,0.4,0.5,0.8,0.5,1.3c0,0.2-0.1,0.4-0.3,0.6c-0.2,0.1-0.5,0.3-1.5,0.6
					c-0.4,0.1-1.3,0.3-1.7,0.3c-0.6,0.1-1.5,0.5-1.9,1.2l-0.7,1.6c-0.1,0.2-0.1,0.6-0.1,0.6c0.3,0.5,0.4,0.5,0.4,0.5H22
					c0,0,0.2-0.1,0.4-0.5c0.1-0.1,0-0.6-0.1-0.8l-0.7-1.5c-0.3-0.6-1.2-1.1-1.9-1.1c-0.4,0-1.1-0.2-1.7-0.3c-1-0.2-1.3-0.4-1.5-0.6
					c-0.2-0.1-0.3-0.4-0.3-0.6c0-0.5,0.2-0.9,0.5-1.3l0.1-0.1c0.9-0.7,1.4-1.8,1.4-3.1c0-2-1.3-3.6-2.9-3.6s-2.9,1.6-2.9,3.6
					c0,1.3,0.5,2.4,1.4,3.1C14.1,16.4,14.1,16.5,14.2,16.5L14.2,16.5z"/>
			</defs>
			<use xlink:href="#SVGID_3_"  style="overflow:visible;fill:#C8C8C8;"/>
			<clipPath id="SVGID_1_">
				<use xlink:href="#SVGID_3_"  style="overflow:visible;"/>
			</clipPath>
			<g transform="matrix(1 0 0 1 0 0)" class="st5">
				
					<!-- <image style="overflow:visible;enable-background:new    ;" width="76" height="62" xlink:href="DC8B6EE5.jpg"  transform="matrix(0.5459 0 0 0.5459 -6.228738e-02 8.610304e-02)">
				</image> -->
			</g>
		</g>
	</g>
</g>
<g id="图层_3" class="st3">
	<g id="Home_1_" class="st4">
		<g>
			<path class="st0" d="M25.1,16.8l-8.5-9.5c-0.5-0.6-1.5-0.6-2,0l-9.2,9.5c-0.4,0.4-0.5,1-0.3,1.5C5.3,18.7,5.8,19,6.3,19h1.4v5.4
				c0,0.7,0.6,1.4,1.4,1.4h12.5c0.8,0,1.4-0.6,1.4-1.4V19h1.1c0.5,0,1-0.3,1.3-0.8C25.6,17.7,25.5,17.2,25.1,16.8z M22.8,17.5
				c-0.8,0-1.4,0.6-1.4,1.4v5.4H9.3v-5.4c0-0.7-0.6-1.4-1.4-1.4H6.7l8.8-9.1l8.2,9.1H22.8z"/>
		</g>
	</g>
</g>
<g id="图层_4">
	<text transform="matrix(1.2263 0 0 1 4.9714 21.9571)" class="st6 st7 st8">CA</text>
</g>
</svg>
