<?xml version="1.0" encoding="utf-8"?>
<!-- Generator: Adobe Illustrator 21.0.0, SVG Export Plug-In . SVG Version: 6.00 Build 0)  -->
<svg version="1.1" id="图层_1" xmlns="http://www.w3.org/2000/svg" xmlns:xlink="http://www.w3.org/1999/xlink" x="0px" y="0px"
	 width="26px" height="26px" viewBox="0 0 26 26" style="enable-background:new 0 0 26 26;" xml:space="preserve">
<style type="text/css">
	.st0{display:none;}
	.st1{display:inline;}
	.st2{fill-rule:evenodd;clip-rule:evenodd;fill:#2983C7;}
	.st3{display:none;fill-rule:evenodd;clip-rule:evenodd;fill:#2983C7;}
</style>
<g class="st0">
	<g id="Mark_1_" class="st1">
		<g>
			<path class="st2" d="M25.1,8.6h-2.7V0.9c0-0.5-0.4-0.9-0.9-0.9H4.4C3.9,0,3.6,0.4,3.6,0.9v7.7H0.9C0.4,8.6,0,9,0,9.4v5.2
				c0,0.4,0.3,0.7,0.6,0.8l3,2.3c0.1,1.2,0.7,2.3,1.7,3l7.2,5c0.1,0.1,0.3,0.2,0.5,0.2s0.3-0.1,0.5-0.2l7.2-5c1-0.7,1.6-1.8,1.7-3
				l3-2.3c0.4-0.1,0.6-0.4,0.6-0.8V9.4C26,9,25.6,8.6,25.1,8.6z M5.3,1.8h15.4v6.8H5.3V1.8z M20.7,17.4c0,0.8-0.4,1.5-1,2L13,24
				l-6.7-4.7c-0.6-0.4-1-1.2-1-2v-1.9h15.4V17.4z M24.3,13.8H1.7v-3.5h22.5V13.8z"/>
		</g>
	</g>
</g>
<rect x="1.2" y="9.7" class="st3" width="23.3" height="4.4"/>
<g id="Money">
	<g>
		<path class="st2" d="M13,16.8c7.3,0,13-3.5,13-8c0-4.5-5.7-8-13-8c-7.3,0-13,3.5-13,8C0,13.3,5.7,16.8,13,16.8z M24.8,14.4
			c-0.5-0.3-1.1-0.2-1.4,0.3c-1.6,2.5-5.7,4.1-10.4,4.1c-4.7,0-8.9-1.7-10.4-4.1c-0.3-0.5-0.9-0.6-1.4-0.3c-0.5,0.3-0.6,0.9-0.3,1.4
			c1.9,3.1,6.7,5.1,12.1,5.1c5.4,0,10.2-2,12.1-5.1C25.4,15.3,25.3,14.7,24.8,14.4z M24.8,18.7c-0.5-0.3-1.1-0.2-1.4,0.3
			c-1.6,2.5-5.7,4.1-10.4,4.1c-4.7,0-8.9-1.7-10.4-4.1c-0.3-0.5-0.9-0.6-1.4-0.3c-0.5,0.3-0.6,0.9-0.3,1.4c1.9,3.1,6.7,5.1,12.1,5.1
			c5.4,0,10.2-2,12.1-5.1C25.4,19.6,25.3,19,24.8,18.7z"/>
	</g>
</g>
</svg>
