<?xml version="1.0" encoding="utf-8"?>
<!-- Generator: Adobe Illustrator 21.0.0, SVG Export Plug-In . SVG Version: 6.00 Build 0)  -->
<svg version="1.1" xmlns="http://www.w3.org/2000/svg" xmlns:xlink="http://www.w3.org/1999/xlink" x="0px" y="0px" width="28px"
	 height="28px" viewBox="0 0 28 28" style="enable-background:new 0 0 28 28;" xml:space="preserve">
<style type="text/css">
	.st0{fill-rule:evenodd;clip-rule:evenodd;fill:#87B5D7;}
	.st1{fill-rule:evenodd;clip-rule:evenodd;fill:#2F7DB9;}
	.st2{fill-rule:evenodd;clip-rule:evenodd;fill:#2F7DB9;stroke:#FFFFFF;stroke-miterlimit:10;}
</style>
<g id="图层_1">
	<g id="图层_2">
		<path class="st0" d="M16.1,4.6L12.6,6l-1.2,3l0.2,2.9l2.2,3l-1,0.6l-4.4,1.2l-2.6,4L7,21.9l16.8,0.5l2-0.9l0.2-1.7l-0.6-2.3
			c0,0-1.8-1.2-1.9-1.2s-4.4-0.5-4.4-0.5l-0.5-1.6l1.3-1.4l0.8-3.4L20.3,7l-2.7-2.4H16.1z"/>
	</g>
	<g id="Profile_x5F_1_3_">
		<g>
			<path class="st1" d="M27.1,19l-1-1.7c-0.8-1.3-2.6-2.2-4.1-2.3c-0.4,0-1.3-0.2-2-0.3c-0.2,0-0.4-0.1-0.5-0.1
				c1.5-1.1,2.4-2.9,2.4-4.8c0-3.3-2.6-5.9-5.8-5.9c-3.2,0-5.8,2.7-5.8,5.9c0,1.9,0.9,3.7,2.4,4.8c-0.1,0-0.3,0.1-0.5,0.1
				c-0.9,0.2-1.7,0.3-2,0.3c-1.4,0.1-3.3,1-4.1,2.3l-1,1.8c-0.4,0.8-0.4,1.8,0,2.4c0.2,0.3,1,1.4,2.2,1.4h17.5c1.2,0,2-1.1,2.2-1.4
				C27.6,20.9,27.5,19.6,27.1,19z M25.4,20.7c-0.3,0.5-0.5,0.6-0.6,0.6l-17.4,0c0,0-0.2-0.1-0.6-0.6c-0.1-0.1-0.1-0.5,0.1-0.7l1-1.8
				c0.4-0.7,1.6-1.3,2.5-1.4c0.6,0,1.7-0.3,2.3-0.4c1.4-0.3,1.8-0.5,2-0.7c0.2-0.2,0.4-0.4,0.3-0.7c0-0.5-0.2-1-0.6-1.5
				c-0.1-0.1-0.1-0.1-0.2-0.2c-1.1-0.8-1.8-2.1-1.8-3.6c0-2.3,1.7-4.2,3.8-4.2c2.1,0,3.8,1.9,3.8,4.2c0,1.5-0.7,2.8-1.8,3.6
				c-0.1,0-0.1,0.1-0.2,0.2c-0.4,0.5-0.6,1-0.7,1.5c0,0.3,0.1,0.5,0.3,0.7c0.2,0.2,0.6,0.4,2,0.6c0.8,0.2,1.8,0.3,2.3,0.4
				c0.9,0.1,2.1,0.6,2.5,1.3l1,1.7C25.5,20,25.5,20.5,25.4,20.7z"/>
		</g>
	</g>
</g>
<g id="图层_3">
	<path class="st2" d="M11.2,15.4H8.8v-2.9c0-1-0.8-1.8-1.8-1.8s-1.8,0.8-1.8,1.8v2.9H2.4c-1,0-1.8,0.8-1.8,1.8c0,1,0.8,1.8,1.8,1.8
		h2.8v2.3c0,1,0.8,1.8,1.8,1.8s1.8-0.8,1.8-1.8V19h2.4c1,0,1.8-0.8,1.8-1.8C12.9,16.2,12.1,15.4,11.2,15.4z"/>
</g>
</svg>
