<?xml version="1.0" encoding="utf-8"?>
<!-- Generator: Adobe Illustrator 21.0.0, SVG Export Plug-In . SVG Version: 6.00 Build 0)  -->
<svg version="1.1" xmlns="http://www.w3.org/2000/svg" xmlns:xlink="http://www.w3.org/1999/xlink" x="0px" y="0px" width="16px"
	 height="16px" viewBox="0 0 16 16" style="enable-background:new 0 0 16 16;" xml:space="preserve">
<style type="text/css">
	.st0{display:none;}
	.st1{fill:#C74C4B;}
</style>
<g id="图层_1" class="st0">
</g>
<g id="图层_2" class="st0">
</g>
<g id="图层_3" class="st0">
</g>
<g id="图层_3_x5F_复制">
	<path class="st1" d="M8,0C3.6,0,0,3.6,0,8s3.6,8,8,8s8-3.6,8-8S12.4,0,8,0z M11.8,9.9H7.7c0,0,0,0,0,0c0,0,0,0,0,0
		c-0.5,0-0.9-0.4-0.9-0.9V3.2c0-0.5,0.4-0.9,0.9-0.9c0.5,0,0.9,0.4,0.9,0.9v4.6h3.2c0.5,0,1,0.4,1,1S12.4,9.9,11.8,9.9z"/>
</g>
</svg>
