<?xml version="1.0" encoding="utf-8"?>
<!-- Generator: Adobe Illustrator 21.0.0, SVG Export Plug-In . SVG Version: 6.00 Build 0)  -->
<svg version="1.1" id="图层_1" xmlns="http://www.w3.org/2000/svg" xmlns:xlink="http://www.w3.org/1999/xlink" x="0px" y="0px"
	 width="31px" height="31px" viewBox="0 0 31 31" style="enable-background:new 0 0 31 31;" xml:space="preserve">
<style type="text/css">
	.st0{fill-rule:evenodd;clip-rule:evenodd;fill:#2983C7;}
</style>
<g id="Featured_1_">
	<g>
		<path class="st0" d="M21,9.3L21,9.3l-3.7,0l-1.1-3.5c-0.1-0.3-0.4-0.5-0.7-0.5c-0.3,0-0.6,0.2-0.7,0.5l-1.1,3.5l-3.7,0h0
			c-0.3,0-0.6,0.2-0.7,0.5c-0.1,0.3,0,0.7,0.3,0.9l3,2.1l-1.1,3.5c-0.1,0.3,0,0.7,0.3,0.9c0.1,0.1,0.3,0.1,0.5,0.1
			c0.2,0,0.3,0,0.5-0.1l3-2.1l3,2.1c0.1,0.1,0.3,0.1,0.5,0.1c0.2,0,0.3,0,0.5-0.1c0.3-0.2,0.4-0.5,0.3-0.9l-1.2-3.5l3-2.1
			c0.3-0.2,0.4-0.5,0.3-0.9C21.7,9.5,21.4,9.3,21,9.3z M15.5,0C8.8,0,3.3,5.4,3.3,12c0,4.3,2.3,8.2,6.1,10.4v7.5
			c0,0.4,0.2,0.8,0.6,0.9c0.4,0.2,0.8,0.1,1.1-0.1l4.5-3.4l4.5,3.4c0.2,0.1,0.4,0.2,0.7,0.2c0.2,0,0.3,0,0.5-0.1
			c0.4-0.2,0.6-0.5,0.6-0.9v-7.6c3.7-2.2,6-6.1,6-10.3C27.7,5.4,22.2,0,15.5,0z M20.2,20.8c-0.3,0.1-0.5,0.4-0.5,0.7
			c0,0.1,0,0.2,0,0.3v6l-3.4-2.6C16,25.1,15.8,25,15.5,25c-0.2,0-0.5,0.1-0.7,0.2l-3.4,2.6v-6c0-0.4-0.2-0.8-0.6-0.9
			c-3.4-1.7-5.5-5.1-5.5-8.8c0-5.5,4.5-9.9,10.1-9.9c5.5,0,10.1,4.4,10.1,9.9C25.6,15.7,23.5,19.1,20.2,20.8z"/>
	</g>
</g>
</svg>
